<svg width="186" height="173" viewBox="0 0 186 173" fill="none" xmlns="http://www.w3.org/2000/svg">
<g id="Group">
<path id="Vector" d="M114.268 49.0452C138.605 50.4912 158.395 68.6794 169.385 89.1329C184.359 116.996 184.935 149.039 185.965 179.84C186.074 183.062 186.166 185.587 182.405 185.925C176.723 186.439 170.49 186.088 164.758 186.318C130.784 187.676 96.6588 187.985 62.836 189.223C58.5368 189.381 54.3047 191.83 51.4764 187.166C47.114 179.97 43.3149 162.776 40.3772 153.987C38.1162 147.221 32.6108 135.836 32.0308 129.338C31.4172 122.45 37.4354 127.131 38.9063 124.598C39.3056 123.909 39.3812 119.842 39.5871 118.601C42.4911 101.295 50.8586 87.1561 62.5713 74.3298L58.8604 70.5518C57.9946 70.3637 56.322 72.1065 55.2797 72.4742C44.1806 76.4028 31.0096 48.949 45.433 45.497C44.7311 42.1452 43.2644 38.9355 42.9366 35.4876C42.7265 33.2809 43.6763 26.1134 41.3312 25.3988C36.5781 23.9486 29.4294 32.9591 27.6979 36.7121C24.1383 44.4229 25.6218 53.7301 25.2058 61.9717C19.5574 63.5138 13.3123 63.7813 7.63038 62.2433C3.15038 61.0355 2.71331 58.7202 1.55759 54.5159C-3.44774 36.2942 3.52862 12.7732 23.6718 7.68279C32.4847 5.45524 35.6241 6.86783 43.6175 9.36287C45.7608 10.0316 48.1016 10.2238 50.2072 11.1516C52.443 9.58855 54.1576 7.61175 56.4228 6.04033C65.2399 -0.0697784 74.9732 -1.64119 85.236 1.76911C93.2588 4.43967 96.6462 9.73064 101.626 15.9536C102.866 16.4802 104.06 14.4699 105.089 13.9643C114.839 9.21659 121.345 27.572 119.029 34.915C117.941 38.3713 116.323 38.6471 114.217 40.5612C112.435 42.1828 113.801 46.8678 114.255 49.0368L114.268 49.0452ZM100.487 51.7283C102.858 48.9323 106.375 52.0417 108.477 52.9319C108.93 53.1242 108.893 53.5045 109.393 52.8692C110.317 37.4059 101.874 22.6697 91.7585 11.5695C84.7822 18.1561 72.3844 18.457 63.8657 14.9004C62.5335 25.5492 54.061 32.1065 47.1645 39.3576C52.9347 58.6492 69.6821 89.3544 94.3515 75.8678C94.9735 75.5293 98.8862 73.0384 99.029 72.796C99.609 71.8181 97.2093 67.9355 99.9746 66.4435C101.509 65.6119 102.786 66.5814 102.895 63.9025C102.996 61.5203 101.404 60.3752 100.576 58.273C99.8107 56.3297 98.9492 53.5379 100.487 51.7241V51.7283ZM107.384 17.0611C106.119 17.3202 104.997 18.8498 104.64 20.0409L112.318 36.1646C119.252 33.2182 113.738 15.7697 107.384 17.0611ZM44.832 49.6553C39.0702 50.0524 43.6048 60.7806 45.3237 63.5724C46.8156 66.0005 49.1229 68.8842 52.2665 68.6753C58.7301 68.2448 54.8469 65.0894 53.3045 62.3102C52.2076 60.3334 47.8495 50.5957 46.7778 50.0273C46.4038 49.8309 45.2817 49.6219 44.832 49.6553ZM123.858 82.8848C120.248 75.7215 116.852 68.3785 112.032 61.9006C109.809 58.9083 107.09 54.9421 103.303 54.1063C101.651 55.3225 106.115 61.4744 107.09 62.6446C108.809 64.7091 111.902 66.0925 111.271 69.1183C108.956 69.0347 108.552 65.9963 106.241 65.7874C106.648 68.5624 111.473 70.0837 108.968 73.2808C107.548 72.9005 103.404 67.7516 102.236 69.5195C100.416 72.2778 106.762 77.0923 104.518 78.6721C102.816 79.8716 100.202 75.2284 98.2684 75.7926C98.1171 77.7986 98.8988 79.8799 99.6258 81.7397C100.294 83.4449 103.064 88.9448 105.089 88.6648C110.91 85.639 117.256 83.286 123.862 82.8807L123.858 82.8848ZM147.317 142.072C147.317 142.072 144.905 134.336 143.779 130.441C143.169 128.326 142.547 122.07 140.408 121.677L103.496 123.754L98.26 124.185L35.7501 129.601C41.0454 142.924 49.9886 170.203 49.9886 170.203C49.9886 170.203 51.5226 173.747 51.7663 175.569C51.9428 176.889 54.5989 184.04 55.4478 184.876C57.2592 186.652 61.6635 185.123 64.0506 185.052C71.3422 184.826 78.5875 184.5 85.8664 184.216C91.7501 183.99 106.326 183.68 106.326 183.68C106.326 183.68 108.813 183.171 110.288 183.142C111.851 183.112 116.151 183.434 116.151 183.434L159.509 181.315C160.354 180.479 154.113 161.572 153.222 158.994C152.646 157.33 149.381 148.011 149.381 148.011L148.183 145.027L147.317 142.072ZM181.333 182.573C180.846 181.035 180.984 175.255 179.379 174.72L163.296 175.071C163.581 176.961 164.485 181.884 166.527 182.486C171.449 182.469 176.458 181.574 181.333 182.573Z" fill="#1C1C1F"/>
<path id="Vector_2" d="M100.487 51.7288C98.9488 53.5426 99.8103 56.3302 100.575 58.2777C101.403 60.3799 102.992 61.525 102.895 63.9072C102.786 66.5861 101.508 65.6207 99.9742 66.4482C97.2089 67.9444 99.6086 71.8228 99.0286 72.8007C98.8858 73.039 94.9731 75.5298 94.3511 75.8725C69.6859 89.3549 52.9385 58.6539 47.1641 39.3623C54.0648 32.1112 62.5331 25.5539 63.8653 14.9051C72.384 18.4617 84.7818 18.1608 91.7581 11.5742C101.874 22.6702 110.313 37.4106 109.392 52.8739C108.892 53.505 108.93 53.1288 108.476 52.9366C106.371 52.0464 102.857 48.937 100.487 51.733V51.7288ZM81.344 21.2242C79.4276 21.8887 80.3732 26.3605 82.8612 25.6835C85.3491 25.0064 84.8112 20.0206 81.344 21.2242ZM75.6116 42.8478C76.5866 37.5527 78.4106 30.6359 73.9474 26.3605C71.9091 24.4046 63.2601 21.1573 62.3776 25.2948L63.0206 26.7993C66.4205 26.9582 70.0263 27.1671 72.1865 30.2013C76.2882 35.9603 69.4884 40.0435 72.7454 45.0754C76.7926 51.3276 87.4672 43.7087 75.6116 42.852V42.8478ZM59.9821 30.8156C57.3554 31.3213 57.8892 34.3931 59.2424 35.9729C63.6888 37.8577 63.693 30.1052 59.9821 30.8156ZM88.5137 44.624C84.5128 45.1589 76.3009 49.9777 74.561 53.6889C73.4515 56.0585 74.3256 57.7135 76.7673 58.587C83.294 60.919 94.0527 57.2956 94.8176 49.6099C95.2547 45.2049 92.4221 44.1058 88.5137 44.624Z" fill="white"/>
<path id="Vector_3" d="M123.858 82.8857C117.252 83.2911 110.906 85.6482 105.085 88.6698C103.063 88.954 100.29 83.4499 99.6215 81.7448C98.8945 79.885 98.1128 77.8037 98.2641 75.7976C100.197 75.2292 102.811 79.8766 104.513 78.6772C106.758 77.0932 100.412 72.2829 102.231 69.5245C103.395 67.7567 107.539 72.9056 108.964 73.2859C111.469 70.0887 106.644 68.5675 106.236 65.7924C108.548 66.0014 108.951 69.0397 111.267 69.1233C111.897 66.0933 108.804 64.7142 107.085 62.6496C106.11 61.4794 101.647 55.3275 103.299 54.1113C107.085 54.9472 109.804 58.9175 112.028 61.9057C116.844 68.3794 120.244 75.7224 123.854 82.8899L123.858 82.8857Z" fill="white"/>
<path id="Vector_4" d="M44.8325 49.6551C45.2822 49.6259 46.4043 49.8307 46.7784 50.0271C47.85 50.5955 52.2081 60.3332 53.305 62.31C54.8474 65.0892 58.7306 68.2446 52.267 68.6751C49.1192 68.884 46.8162 65.9961 45.3242 63.5722C43.6054 60.7804 39.0707 50.0522 44.8325 49.6551Z" fill="white"/>
<path id="Vector_5" d="M107.383 17.0623C113.733 15.7709 119.247 33.2194 112.317 36.1658L104.639 20.0421C104.996 18.851 106.118 17.3172 107.383 17.0623Z" fill="white"/>
<path id="Vector_6" d="M88.5154 44.6236C92.4281 44.1012 95.2606 45.2045 94.8194 49.6095C94.0545 57.2952 83.3 60.9186 76.7691 58.5866C74.3274 57.7131 73.449 56.0581 74.5627 53.6885C76.3026 49.9773 84.5103 45.1585 88.5154 44.6236ZM88.5112 48.3682C86.494 48.69 76.7817 52.8192 77.2944 55.1345C80.3035 58.2606 91.7809 53.6676 91.9826 50.1068C92.0961 48.0882 90.0788 48.1175 88.5112 48.3682Z" fill="#1C1C1F"/>
<path id="Vector_7" d="M75.612 42.8469C87.4718 43.7036 76.7929 51.3225 72.7458 45.0703C69.4888 40.0384 76.2844 35.9553 72.1869 30.1962C70.0267 27.162 66.4209 26.9531 63.0209 26.7943L62.3779 25.2897C63.2647 21.1522 71.9095 24.3995 73.9478 26.3554C78.4067 30.6308 76.587 37.5476 75.612 42.8427V42.8469Z" fill="#1C1C1F"/>
<path id="Vector_8" d="M59.9848 30.8137C63.6957 30.1033 63.6915 37.8558 59.2451 35.971C57.8919 34.3912 57.3624 31.3194 59.9848 30.8137Z" fill="#1C1C1F"/>
<path id="Vector_9" d="M81.3456 21.2223C84.8085 20.0187 85.4137 24.9878 82.8627 25.6816C80.3117 26.3754 79.4334 21.891 81.3456 21.2223Z" fill="#1C1C1F"/>
<path id="Vector_10" d="M88.5082 48.3668C90.0716 48.116 92.093 48.0868 91.9795 50.1054C91.7778 53.6661 80.3005 58.2591 77.2914 55.133C76.7745 52.8135 86.4867 48.6886 88.5082 48.3668Z" fill="white"/>
</g>
</svg>
