<svg width="126" height="126" viewBox="0 0 126 126" fill="none" xmlns="http://www.w3.org/2000/svg">
<g id="Frame 106">
<path id="Union" fill-rule="evenodd" clip-rule="evenodd" d="M46.1894 13.0713V17.7448C51.406 15.9826 56.9942 15.0273 62.8055 15.0273C68.6109 15.0273 74.1935 15.9806 79.4055 17.7393V13.0659L81.3033 7.38903L84.3087 7.38908L82.4982 13.5242V18.8945C101.391 26.65 114.695 45.2297 114.695 66.9168C114.695 95.5746 91.4633 118.806 62.8055 118.806C34.1477 118.806 10.916 95.5746 10.916 66.9168C10.916 45.2359 24.2129 26.6606 43.0967 18.9012V13.5191L41.3027 7.36328H44.4385L46.1894 13.0713ZM12.7201 66.9168C12.7201 46.2529 25.2339 28.5118 43.0967 20.8582V24.7816C27.2655 32.2002 16.3008 48.2781 16.3008 66.917C16.3008 92.602 37.1226 113.424 62.8076 113.424C88.4926 113.424 109.314 92.602 109.314 66.917C109.314 48.2701 98.3403 32.1864 82.4982 24.772V20.8512C100.37 28.501 112.891 46.2467 112.891 66.9168C112.891 94.5782 90.467 117.002 62.8055 117.002C35.1441 117.002 12.7201 94.5782 12.7201 66.9168ZM79.4055 23.4594V19.6478C74.2105 17.8235 68.6239 16.8314 62.8055 16.8314C56.9811 16.8314 51.3889 17.8256 46.1894 19.6535V23.4672C51.35 21.4922 56.9525 20.4102 62.8076 20.4102C68.6551 20.4102 74.2505 21.4893 79.4055 23.4594Z" fill="#C90100"/>
<path id="Intersect" fill-rule="evenodd" clip-rule="evenodd" d="M82.5051 24.7728V69.2945C82.5051 80.1749 73.6848 88.9952 62.8043 88.9952C51.9239 88.9952 43.1035 80.1749 43.1035 69.2945V24.7805C44.1151 24.3065 45.1465 23.8679 46.1962 23.4662V69.2945C46.1962 78.4669 53.6319 85.9025 62.8043 85.9025C71.9767 85.9025 79.4123 78.4669 79.4123 69.2945V23.46C80.462 23.8612 81.4935 24.2993 82.5051 24.7728Z" fill="white"/>
</g>
</svg>
