<svg width="26" height="26" viewBox="0 0 26 26" fill="none" xmlns="http://www.w3.org/2000/svg">
<g id="Advantages/Close">
<path id="Subtract" fill-rule="evenodd" clip-rule="evenodd" d="M13 22.75C18.3848 22.75 22.75 18.3848 22.75 13C22.75 7.61522 18.3848 3.25 13 3.25C7.61522 3.25 3.25 7.61522 3.25 13C3.25 18.3848 7.61522 22.75 13 22.75ZM10.4571 9.04289C10.0666 8.65237 9.43342 8.65237 9.04289 9.04289C8.65237 9.43342 8.65237 10.0666 9.04289 10.4571L11.5858 13L9.04289 15.5429C8.65237 15.9334 8.65237 16.5666 9.04289 16.9571C9.43342 17.3476 10.0666 17.3476 10.4571 16.9571L13 14.4142L15.5429 16.9571C15.9334 17.3476 16.5666 17.3476 16.9571 16.9571C17.3476 16.5666 17.3476 15.9334 16.9571 15.5429L14.4142 13L16.9571 10.4571C17.3476 10.0666 17.3476 9.43342 16.9571 9.04289C16.5666 8.65237 15.9334 8.65237 15.5429 9.04289L13 11.5858L10.4571 9.04289Z" fill="#ADAABB"/>
</g>
</svg>
