<?xml version="1.0" encoding="utf-8"?>
<svg version="1.1" id="Layer_1" xmlns="http://www.w3.org/2000/svg" xmlns:xlink="http://www.w3.org/1999/xlink" x="0px" y="0px"
	 width="89px" height="15px" xml:space="preserve">

<path fill="#5222D0" d="M86.1,11.9c-3.9-3.8-8.7-8.8-14.7-8.5c-5,0.2-7.1,4.1-10.4,6.9c-6.3,5.2-10.5-0.7-16.2-3.6
	c-2.3-1.1-5.1-2.2-7.6-1.3c-2.6,0.9-3.7,3.7-5.3,5.6c-1.7,2.3-3.9,3.7-6.9,3.5c-2.8-0.2-5.3-1.7-7.3-3.5c-1.6-1.3-2.9-3-4.6-4.4
	c-1.6-1.3-3.7-3-5.9-2.7c-1.7,0.2-4,2.2-3.6,4.2c0.3,1.9-2.7,2.2-2.9,0.2C0,5.4,1.7,3,4.4,1.8c3.5-1.6,7.2-0.3,10.1,2.1
	c5.3,4.3,10.5,11.9,16.5,3.6c2.3-3.1,4.6-5.2,8.6-5.2c3.9,0.1,7.3,2.1,10.4,4.1c1.6,1.1,4.2,3.3,6.2,3.4c1.7,0.1,3.5-2,4.7-3.1
	c1.2-1.2,2.4-2.6,3.9-3.7C73-3.5,82.2,3.8,88.1,9.7C89.4,11.1,87.5,13.3,86.1,11.9z"/>
</svg>
