<?xml version="1.0" encoding="utf-8"?>
<svg version="1.1" id="Layer_1" xmlns="http://www.w3.org/2000/svg" xmlns:xlink="http://www.w3.org/1999/xlink" x="0px" y="0px"
	 width="185px" height="17px" xml:space="preserve">

<path fill="#6E57FF" d="M122.934 2.28957C122.875 2.31501 122.85 2.3284 122.956 2.28983C122.981 2.2901 123.009 2.29041 123.041 2.29201C123.068 2.2923 123.153 2.29697 123.224 2.30025C123.33 2.31384 123.566 2.34006 123.562 2.33878C124.392 2.45728 125.403 2.77405 126.244 3.21315C128.522 4.40228 130.175 6.09375 131.82 7.64353C133.468 9.19709 135.133 10.8862 137.46 12.0436C139.97 13.2924 142.871 13.8152 145.963 13.4023C149.117 12.9827 151.338 11.5838 152.655 9.7178C153.714 8.21538 154.238 6.5766 155.143 5.0352C155.318 4.73779 155.501 4.44046 155.729 4.15854C155.857 3.99973 155.999 3.84355 156.152 3.6937C156.216 3.63107 156.342 3.51819 156.443 3.43112C156.464 3.4388 156.487 3.44526 156.507 3.45294C158.982 4.3126 160.338 6.31132 161.416 7.90202C163.63 11.166 165.913 15.622 172.456 15.5691C175.849 15.5421 179.081 14.4787 181.097 12.6937C182.736 11.2424 183.576 9.39226 183.885 7.60825C184.202 5.7734 184.034 3.87232 183.171 2.10141C182.828 1.3958 180.977 1.53056 180.173 1.67567C179.488 1.79974 177.509 2.26597 177.856 2.97783C178.73 4.76997 178.903 6.67608 178.471 8.52456C178.098 10.1141 177.325 11.9016 175.54 13.0619C175.097 13.3501 174.954 13.4293 174.526 13.5773C174.662 13.5428 174.573 13.5691 174.473 13.5953C174.459 13.6002 174.446 13.605 174.431 13.6098C174.446 13.605 174.461 13.6002 174.473 13.5953C174.444 13.6025 174.416 13.6096 174.391 13.6156C174.389 13.6155 174.386 13.6155 174.384 13.6155C174.442 13.6 174.488 13.5881 174.52 13.5797C174.585 13.5568 174.469 13.5903 174.38 13.6154C174.367 13.6141 174.355 13.6127 174.344 13.6113C174.355 13.6127 174.365 13.6153 174.374 13.6166C174.363 13.6202 174.351 13.6238 174.34 13.6262C174.34 13.6262 174.34 13.6262 174.342 13.6262C174.353 13.6226 174.365 13.6202 174.376 13.6179C174.376 13.6179 174.38 13.6179 174.382 13.6179C174.376 13.6191 174.37 13.6203 174.365 13.6215C174.359 13.6214 174.355 13.6239 174.35 13.625C174.365 13.6227 174.378 13.6216 174.391 13.6218L174.393 13.6218C174.38 13.6266 174.367 13.6302 174.353 13.635C174.348 13.635 174.342 13.6349 174.334 13.636C174.321 13.6359 174.306 13.6357 174.291 13.6356C174.043 13.6875 174.141 13.6575 174.266 13.6353C174.026 13.6364 173.698 13.6079 173.353 13.5221C172.771 13.3765 172.247 13.1583 171.785 12.8861C169.721 11.6646 168.625 9.86623 167.54 8.23198C166.327 6.40378 165.164 4.45813 163.038 2.98749C160.729 1.38935 157.57 0.930774 154.476 1.79454C149.266 3.24847 149.523 7.5404 147.134 10.3721C146.872 10.6834 146.568 11.0167 146.204 11.2735C146.122 11.331 146.029 11.3846 145.938 11.437C145.917 11.4492 145.784 11.5197 145.712 11.5599C145.67 11.5769 145.615 11.6011 145.57 11.6192C145.558 11.6191 145.547 11.619 145.534 11.6188C145.555 11.6091 145.56 11.6055 145.528 11.6188C145.456 11.6167 145.383 11.6147 145.311 11.6114C145.296 11.6087 145.275 11.606 145.25 11.602C145.107 11.5806 144.964 11.5628 144.821 11.5401C144.498 11.4881 144.485 11.4817 144.127 11.3797C141.614 10.6624 139.87 9.16866 138.293 7.75131C135.151 4.92541 132.079 0.964971 126.233 0.425684C123.024 0.129261 119.65 0.808585 117.479 2.40426C115.823 3.62182 115.152 5.29749 114.682 6.86729C114.203 8.4631 113.947 10.0999 113.252 11.6635C112.988 12.258 112.724 12.7395 112.245 13.2025C111.228 12.7801 110.429 12.0682 109.773 11.4324C108.912 10.5981 108.289 9.68315 107.638 8.77415C106.511 7.19533 105.356 5.36156 103.322 4.18011C100.862 2.75295 97.368 2.867 94.6277 3.86015C92.1472 4.75928 90.4596 6.37523 89.0953 7.95997C87.5837 9.71574 86.4296 11.596 84.6659 13.2545C84.2823 13.6142 83.8798 13.9737 83.4229 14.2953C83.2897 14.3883 83.1413 14.4823 82.9854 14.5749C82.8694 14.6445 82.7459 14.7077 82.628 14.7772C82.5995 14.7942 82.5767 14.8076 82.5577 14.8199C82.4561 14.7827 82.2754 14.7223 82.234 14.7082C82.1513 14.6787 82.1136 14.6684 82.1004 14.6657C82.0854 14.6556 82.0554 14.6367 81.9953 14.6025C81.864 14.5277 81.7306 14.4554 81.6069 14.3758C81.2843 14.171 80.9978 13.9443 80.7322 13.7065C80.188 13.2186 79.8023 12.7435 79.4004 12.1963C78.4998 10.9702 77.7849 9.6916 76.9373 8.45126C76.1827 7.34609 75.3274 6.12677 73.9522 5.28923C72.41 4.34924 70.3918 4.09955 68.3737 4.33927C64.4039 4.812 62.221 6.97769 60.4084 9.13381C59.5069 10.2057 58.6675 11.3007 57.7133 12.3534C57.2869 12.8231 56.8379 13.2864 56.3363 13.7231C56.1208 13.912 55.8865 14.0895 55.6559 14.272C55.6046 14.305 55.555 14.3405 55.5018 14.3722C55.4048 14.4307 55.3041 14.488 55.2052 14.5453C54.8872 14.4411 54.6052 14.3175 54.3313 14.1555C52.2559 12.9214 51.1318 11.0743 49.9674 9.44787C48.7194 7.70374 47.232 5.74331 44.6579 4.68878C42.0706 3.62913 38.3283 4.20002 36.206 5.49565C32.8324 7.55498 32.4591 10.9034 29.5816 13.1955C29.5626 13.2102 29.4979 13.2567 29.4674 13.2799C29.3627 13.3483 29.2524 13.4154 29.1403 13.4775C29.146 13.4739 28.8134 13.6652 28.9807 13.564C28.9807 13.564 28.9427 13.5797 28.901 13.5966C28.901 13.5929 28.8727 13.5975 28.8348 13.6071C28.7385 13.6048 28.6251 13.6085 28.7534 13.6223C28.7534 13.6223 28.7515 13.6223 28.7496 13.6223C28.7119 13.6194 28.6741 13.6165 28.6534 13.6137C27.4443 13.4699 26.351 13.0939 25.3745 12.5887C22.8542 11.2826 20.9316 9.55705 18.6131 8.11035C16.1557 6.57889 13.1689 5.44401 9.69498 5.65145C6.50645 5.84342 3.76781 7.02539 2.30792 8.88607C1.05497 10.4807 0.573453 12.3436 1.27352 14.109C1.74941 15.3092 7.07034 14.4415 6.59076 13.2326C5.94032 11.5907 6.3953 9.73628 7.83688 8.33498C8.14046 8.04024 8.44335 7.80883 8.69425 7.66628C8.71896 7.65165 8.81966 7.59811 8.87858 7.56523C8.90502 7.56552 8.92392 7.56449 8.9296 7.56331C9.00131 7.56907 9.06738 7.57229 9.0391 7.56825C9.17113 7.58462 9.58223 7.64383 9.75747 7.68179C10.4245 7.82582 11.0734 8.07523 11.658 8.32889C16.8066 10.5634 19.6629 15.3003 26.5429 15.5467C29.9301 15.6687 33.2054 14.6306 35.0995 12.7958C36.4283 11.51 37.2552 10.015 38.2077 8.59957C38.6321 7.96954 39.0791 7.34598 39.6541 6.76855C39.7744 6.64815 39.8985 6.52904 40.032 6.41376C40.0549 6.39289 40.1577 6.31454 40.2397 6.24962C40.5763 6.38377 40.8729 6.55226 41.1598 6.73803C42.2006 7.41287 43.0205 8.24673 43.7119 9.08787C46.116 12.0161 48.1426 16.9686 54.5465 16.5452C58.6785 16.2718 61.1684 14.1816 63.074 11.9842C63.9981 10.9188 64.8357 9.82134 65.7617 8.75716C66.194 8.26137 66.6415 7.76948 67.1396 7.30175C67.3534 7.10041 67.5747 6.90288 67.811 6.71297C67.912 6.63211 68.0187 6.55379 68.1197 6.47417C68.1786 6.43508 68.2376 6.39474 68.3004 6.35817C68.3327 6.3399 68.365 6.32162 68.3973 6.30211C68.4613 6.32517 68.5252 6.34948 68.5873 6.37377C68.5966 6.38381 68.8353 6.49453 68.8972 6.53124C69.1994 6.706 69.4692 6.90276 69.7181 7.11047C70.2739 7.57125 70.6674 8.03148 71.0527 8.54005C71.9853 9.77265 72.7095 11.0675 73.5569 12.3253C74.3206 13.4591 75.1722 14.6722 76.4976 15.5762C78.4941 16.9361 81.4277 17.0817 84.0241 16.4583C86.8459 15.7816 88.8389 14.2249 90.3756 12.5899C91.9849 10.8775 93.1202 8.99457 94.739 7.2847C95.4155 6.57052 96.1659 5.83977 97.0747 5.30331C97.1584 5.2533 97.2458 5.20707 97.3294 5.15831C97.3446 5.14979 97.3959 5.12427 97.4491 5.09629C97.5338 5.12083 97.6166 5.14783 97.6994 5.17608C97.8782 5.23768 97.976 5.27603 98.1262 5.34974C98.6353 5.60008 99.068 5.9328 99.4553 6.26005C100.294 6.97239 100.935 7.76949 101.536 8.57484C102.872 10.3597 103.976 12.2848 106.053 13.7748C107.014 14.4649 108.211 15.0446 109.608 15.2663C111.446 15.5574 113.503 15.2548 115.089 14.6227C117.147 13.8009 118.147 12.3525 118.725 10.8708C119.335 9.30377 119.591 7.68562 120.104 6.10385C120.352 5.33773 120.651 4.57216 121.113 3.84939C121.328 3.51267 121.605 3.19403 121.956 2.88242C122.092 2.76219 122.216 2.66171 122.303 2.6043C122.408 2.53466 122.52 2.47255 122.632 2.41044C122.697 2.37514 122.797 2.33154 122.847 2.31097C122.869 2.30252 122.89 2.29406 122.913 2.28562L122.915 2.28564C122.92 2.28571 122.924 2.28575 122.93 2.28581L122.934 2.28957ZM174.391 13.6267C174.406 13.6319 174.4 13.638 174.351 13.64C174.366 13.6352 174.38 13.6303 174.391 13.6267ZM155.965 3.2867C155.965 3.2867 155.965 3.29043 155.965 3.29291C155.965 3.29291 155.965 3.29291 155.963 3.29289C155.963 3.29289 155.963 3.29289 155.965 3.29291C155.965 3.29291 155.963 3.29537 155.96 3.29533C155.967 3.2979 155.973 3.2992 155.982 3.30179C155.975 3.29922 155.967 3.2979 155.96 3.29533C155.954 3.29651 155.944 3.29641 155.933 3.29504C155.822 3.30374 155.807 3.2837 155.831 3.26907C155.732 3.23815 155.647 3.20243 155.848 3.2618C155.883 3.24976 155.939 3.24915 155.965 3.2867ZM145.62 11.6285C145.62 11.6285 145.609 11.6284 145.602 11.6283C145.719 11.6159 146.085 11.6498 145.62 11.6285ZM145.596 11.627C145.596 11.627 145.592 11.6269 145.59 11.6269C145.742 11.595 145.954 11.5527 145.596 11.627ZM145.533 11.6399C145.513 11.6484 145.497 11.6544 145.49 11.6581C145.384 11.6979 145.41 11.6833 145.458 11.6602C145.48 11.6543 145.507 11.6471 145.533 11.6399ZM28.8401 13.6382C28.8797 13.6423 28.8948 13.6437 28.8401 13.6382V13.6382ZM39.7296 6.09118C39.7296 6.09118 39.722 6.0911 39.7201 6.09108C39.594 6.05117 39.6562 6.06925 39.7296 6.09118ZM39.7163 6.09351C39.4308 6.12389 39.5637 6.05704 39.7163 6.09351V6.09351ZM55.5649 14.6461C55.5649 14.6461 55.5535 14.6485 55.5478 14.6497C55.5365 14.6495 55.529 14.6482 55.5195 14.6469C55.5045 14.643 55.4894 14.6378 55.4744 14.634C55.6124 14.6218 55.7371 14.6157 55.5649 14.6461ZM55.4931 14.6441C55.4233 14.6371 55.4422 14.6348 55.4931 14.6441V14.6441ZM54.6679 14.8026C54.7712 14.6845 54.9622 14.6568 54.9733 14.6781C54.8672 14.7092 54.7004 14.7657 54.6679 14.8026ZM67.9888 6.1833C67.9888 6.1833 67.9888 6.1833 67.9926 6.18334C67.9926 6.18334 67.9944 6.18337 67.9963 6.18339C67.9963 6.18339 67.9944 6.18337 67.9926 6.18334C67.9926 6.18334 67.9907 6.18332 67.9888 6.1833ZM68.0679 6.20529C68.0679 6.20529 68.0679 6.20529 68.0697 6.20531C68.1036 6.21438 68.1375 6.2247 68.1714 6.23377C68.1469 6.22729 68.1093 6.21818 68.0603 6.20397C68.0622 6.20399 68.066 6.20404 68.0679 6.20406L68.0679 6.20529ZM68.8135 6.07072C68.8611 6.04392 68.882 6.03173 68.8135 6.07072V6.07072ZM68.8969 6.0468C68.9709 6.01656 69.0354 5.9912 69.0467 5.99629C69.0523 5.99884 68.9803 6.02164 68.8969 6.0468ZM122.955 2.2749C123 2.25802 123.044 2.24235 123.091 2.22673C123.061 2.23757 123.019 2.2545 122.979 2.27144C122.972 2.2726 122.964 2.27501 122.955 2.27614L122.955 2.2749Z"/>
</svg>
