<svg width="177" height="115" viewBox="0 0 177 115" fill="none" xmlns="http://www.w3.org/2000/svg">
<g id="Group 66">
<path id="Vector" d="M175.797 41.7987C171.27 60.4541 166.84 79.0511 162.313 97.7064C118.851 85.4486 75.4092 73.1129 32.0253 60.8746C21.3239 65.5537 10.7005 70.2525 -0.000930258 74.9316C5.78429 61.8104 11.6278 48.7867 17.413 35.6656C20.9551 24.5476 24.5751 13.4492 28.1172 2.33123C77.3243 15.4546 126.59 28.6754 175.797 41.7987Z" fill="#C2D2FA"/>
<g id="Group">
<g id="Group_2">
<path id="Vector_2" d="M158.97 63.9042C132.098 57.1445 105.225 50.3847 78.3521 43.6249C76.8722 43.2526 77.46 40.9159 78.9399 41.2882C105.813 48.0479 132.685 54.8077 159.558 61.5675C161.038 61.9397 160.45 64.2765 158.97 63.9042Z" fill="white"/>
</g>
</g>
<path id="Vector_3" d="M135.707 69.1493C110.937 62.9186 86.1673 56.6878 61.4755 50.4767C59.9956 50.1044 60.5834 47.7677 62.0633 48.1399C86.833 54.3707 111.603 60.6014 136.294 66.8126C137.774 67.1849 137.186 69.5216 135.707 69.1493Z" fill="white"/>
<path id="Vector_4" d="M68.7163 40.7861C65.6006 40.0023 62.4849 39.2186 59.3693 38.4348C57.8893 38.0626 58.4771 35.7258 59.9571 36.0981C63.0728 36.8818 66.1884 37.6656 69.3041 38.4493C70.784 38.8216 70.1962 41.1583 68.7163 40.7861Z" fill="white"/>
<path id="Vector_5" d="M40.3917 41.1143C43.6067 40.5151 46.3755 38.727 47.9382 35.8073C48.6999 34.4253 49.5601 32.3227 48.8806 30.7438C47.6191 27.5278 44.3418 30.6788 43.2288 32.4693C42.6626 33.4035 40.9098 33.1283 40.97 31.9011C41.0293 31.3363 41.0106 30.7518 40.992 30.1674C40.9567 27.6739 39.418 27.5353 36.3371 29.5762C35.595 30.8803 35.9419 33.4522 36.2711 34.7773C36.9291 37.7587 38.6398 40.1767 40.955 42.1671C42.1225 43.1233 40.4446 44.8546 39.2772 43.8984C34.88 40.3076 31.1517 32.0816 35.1138 26.8667C36.3434 25.2711 38.5655 24.3393 40.5123 25.1603C43.1405 26.2356 43.584 29.4114 43.4635 31.8658C42.6846 31.6698 41.9836 31.4935 41.2046 31.2975C43.6064 27.3466 50.4686 23.7723 51.452 30.7281C52.3197 36.8266 46.6235 42.3507 41.0506 43.4334C39.5697 43.7235 38.9107 41.4044 40.3917 41.1143Z" fill="white"/>
</g>
</svg>
