<svg width="57" height="56" viewBox="0 0 57 56" fill="none" xmlns="http://www.w3.org/2000/svg">
<rect x="1" y="0.5" width="55" height="55" rx="9.5" fill="white"/>
<rect x="1" y="0.5" width="55" height="55" rx="9.5" stroke="#EEEDF4"/>
<path d="M15.7715 5.36045L39.3027 28.728C39.3027 28.728 42.5861 32.062 42.5861 38.4211C42.5861 44.7801 38.6038 46.8208 38.6038 46.8208L19.2908 27.4464C19.2908 27.4464 15.7715 23.925 15.7715 19.1145V5.35938V5.36045Z" fill="#014386"/>
<path d="M15.8809 29.8071L35.2843 49.1977C35.2843 49.1977 32.3196 50.8938 28.9845 50.7398C25.6493 50.5858 16.4505 48.5677 15.8809 37.8978V29.8071Z" fill="#014386"/>
<path d="M42.4782 26.1442L25.6787 9.3457H32.8325C38.1599 9.3457 42.4782 13.664 42.4782 18.9914V26.1442Z" fill="#014386"/>
</svg>
