<svg width="50" height="50" viewBox="0 0 50 50" fill="none" xmlns="http://www.w3.org/2000/svg">
<g id="Frame 107">
<path id="Union" fill-rule="evenodd" clip-rule="evenodd" d="M18.0855 5.18808V7.0166C20.1262 6.32731 22.3122 5.95363 24.5855 5.95363C26.8566 5.95363 29.0407 6.32662 31.0798 7.01469V5.18595L31.8222 2.96515L32.9979 2.96517L32.2896 5.36525V7.46665C39.6802 10.5007 44.8848 17.769 44.8848 26.253C44.8848 37.464 35.7965 46.5523 24.5855 46.5523C13.3745 46.5523 4.28613 37.464 4.28613 26.253C4.28613 17.7712 9.48809 10.5044 16.8756 7.46897V5.36326L16.1738 2.95508H17.4006L18.0855 5.18808ZM4.99189 26.253C4.99189 18.1691 9.88748 11.2286 16.8756 8.23454V9.76889C10.6818 12.6708 6.3918 18.9609 6.3918 26.253C6.3918 36.301 14.5374 44.4466 24.5854 44.4466C34.6335 44.4466 42.779 36.301 42.779 26.253C42.779 18.9587 38.4864 12.6671 32.2896 9.7663V8.23211C39.2808 11.2248 44.179 18.1669 44.179 26.253C44.179 37.0742 35.4067 45.8465 24.5855 45.8465C13.7642 45.8465 4.99189 37.0742 4.99189 26.253ZM31.0798 9.25267V7.7613C29.0474 7.04756 26.8617 6.65939 24.5855 6.65939C22.3071 6.65939 20.1195 7.04828 18.0855 7.76329V9.25479C20.104 8.48247 22.2953 8.05935 24.5854 8.05935C26.8734 8.05935 29.0628 8.48169 31.0798 9.25267Z" fill="#C90100"/>
<path id="Intersect" fill-rule="evenodd" clip-rule="evenodd" d="M32.2949 9.76657V27.1831C32.2949 31.4396 28.8443 34.8901 24.5879 34.8901C20.3314 34.8901 16.8809 31.4396 16.8809 27.1831V9.76899C17.2766 9.58359 17.6801 9.41202 18.0907 9.2549V27.1831C18.0907 30.7714 20.9996 33.6802 24.5879 33.6802C28.1761 33.6802 31.085 30.7714 31.085 27.1831V9.25293C31.4956 9.4099 31.8991 9.58132 32.2949 9.76657Z" fill="white"/>
</g>
</svg>
