<svg width="77" height="76" viewBox="0 0 77 76" fill="none" xmlns="http://www.w3.org/2000/svg">
<g id="Group 69">
<path id="Vector" d="M29.4067 62.9693L24.6211 70.0346C23.6547 71.1671 23.3525 71.0176 22.1204 70.4082C20 69.3588 17.3316 67.4393 15.52 65.9C14.5852 65.1046 12.0396 63.2416 12.7121 61.9464C13.5772 60.2776 16.1676 58.3797 17.4179 56.8653C17.8115 56.3887 18.5753 55.5369 18.391 54.9175C17.4628 53.9362 16.9132 52.6477 16.0165 51.648C15.1198 50.6484 14.9189 50.4276 13.549 50.5123C10.6564 50.6899 7.4351 51.7842 4.57242 51.9785C4.14733 52.0084 3.38517 52.0864 3.07964 51.8174C2.58979 51.3874 1.2448 46.1734 1.05716 45.2186C0.4295 42.0255 -0.000567436 35.3188 1.16676 32.3333C1.44572 31.6176 1.60512 31.4515 2.41378 31.415L12.0645 32.3631C12.3784 32.3665 12.7354 32.2419 12.9529 32.0144C13.1588 31.8002 14.3809 27.8217 14.7396 27.0047C15.1315 26.1114 16.3635 24.3911 16.2573 23.5675C16.1991 23.1109 15.5748 22.47 15.261 22.0648C14.3643 20.9041 10.3659 16.8542 10.1948 15.8546C10.0537 15.0376 11.5265 13.8371 12.1127 13.2742C16.2407 9.31889 20.9631 5.98961 25.7171 2.838C25.9446 2.6952 26.1687 2.72509 26.4145 2.78653C27.7844 3.12859 30.3631 8.97185 31.3727 10.2687C31.6052 10.551 32.0236 10.81 32.3922 10.8216C33.0614 10.8399 37.1678 10.2122 37.8569 10.003C38.6905 9.75062 38.8515 8.98181 39.0607 8.22297C39.7316 5.78537 39.6054 3.288 41.1596 1.0397C42.0695 -0.275409 42.7952 0.113145 44.1468 0.317385C49.4438 1.1194 55.39 3.75293 59.8534 6.66045C60.4345 7.03904 62.7542 8.55839 63.005 8.99343C63.2142 9.35708 63.0465 9.63936 62.8804 9.98973C61.8808 12.1035 59.8268 14.3203 58.8421 16.3959C58.0899 17.9817 58.8886 17.6828 59.7089 18.5728C60.393 19.3167 62.1764 21.8722 62.9718 22.1113C63.1727 22.1711 63.3736 22.1711 63.5778 22.1345L71.2393 19.0029C71.8786 18.7422 72.2124 18.8982 72.6092 19.4329C74.6815 22.2275 76.7339 31.2905 76.9431 34.824C76.9813 35.4766 77.061 37.6086 76.9132 38.1051C76.7771 38.5584 75.9634 38.673 75.5334 38.7145C74.2714 38.8407 69.8844 38.4223 69.1604 38.9735C68.5195 39.4634 68.1276 41.8196 67.8719 42.6582C67.5813 43.6096 66.575 44.5395 67.7091 45.2137C70.0986 46.6317 74.1967 47.6164 76.337 49.1855C76.7721 49.5044 76.8551 49.6289 76.7439 50.1951C76.5695 51.0802 75.2079 53.5427 74.7081 54.4676C73.2153 57.2273 71.1663 60.261 69.1455 62.6654C68.7303 63.1585 67.0815 65.1229 66.6597 65.3172C66.0271 65.6094 65.6684 65.3056 65.1852 64.9751C63.2906 63.6816 61.4425 61.5529 59.6109 60.1049C59.3403 59.8907 58.6993 59.3527 58.417 59.2963C57.7163 59.1568 57.4922 59.7147 56.9957 59.9654C55.9977 60.4702 53.0985 61.2938 53.2994 62.5873C53.869 65.5247 56.3182 69.6095 56.5473 72.449C56.6818 74.1161 56.0758 74.5462 54.5614 74.9347C49.7344 76.1751 42.8433 75.5325 37.9183 74.8301C37.0582 74.7072 35.7846 74.7687 35.6518 73.7807C35.2865 71.0874 35.8411 68.0155 35.7962 65.3155C35.7746 64.0519 34.7983 64.2794 34.0046 63.9905C32.9917 63.6235 30.2685 62.2503 29.405 62.9643L29.4067 62.9693ZM50.4567 58.3199C50.6128 58.1671 52.2351 57.6225 52.6336 57.4299C53.7029 56.9101 56.8064 55.072 57.7778 55.1384C58.1431 55.1633 58.5399 55.3924 58.8654 55.5568C60.8098 56.5448 62.8173 59.014 64.6223 59.9173C64.8531 60.0318 64.9311 60.0999 65.2184 60.075C66.6049 59.9472 69.1139 56.1563 69.8877 54.9541C70.2596 54.3762 72.4033 50.8676 72.2257 50.4857L64.2869 46.6583C64.1026 46.5503 63.993 46.3909 63.9249 46.1917C63.4135 44.7089 63.9863 41.8894 64.3948 40.3468C64.5841 39.6311 65.2533 37.494 65.7614 37.0723C66.6165 36.3633 72.5428 36.5326 72.9496 35.2972C72.6159 32.0377 72.1559 28.7433 70.7893 25.7361C70.6582 25.4489 70.0189 24.074 69.9043 23.971C69.3348 23.4646 68.1824 24.2118 67.4999 24.3895C65.6468 24.871 63.7572 25.2031 61.9356 25.8075C61.2532 25.8258 59.9281 24.705 59.3718 24.2234C58.4237 23.4048 53.6182 18.518 53.6299 17.5898C54.5249 15.5341 56.7682 13.2958 57.5901 11.3264C57.6931 11.079 57.7661 10.9993 57.6399 10.7187C57.3676 10.1176 51.4015 6.90454 50.4168 6.49274C49.4322 6.08094 44.5835 4.44536 43.9044 4.89701L42.292 11.9524C39.1504 13.7225 35.406 13.7457 32.0701 14.9878C31.7778 14.9944 31.4125 14.6225 31.2166 14.4166C30.1423 13.2924 27.5984 7.99382 26.8744 7.64014C26.7565 7.58202 26.6652 7.56043 26.544 7.63017C23.7743 9.71409 20.8219 11.627 18.1785 13.8703C17.3847 14.5444 15.1198 16.449 14.8459 17.3407C14.7745 17.5732 14.7097 17.7791 14.8558 18.0049C15.442 19.1623 20.1677 23.4397 20.2441 24.2334C20.3288 25.1002 18.4923 27.5295 18.0589 28.5025C17.5192 29.7147 16.3336 34.3806 15.2693 34.829C14.3859 35.2009 9.77638 34.1598 8.39818 34.0801C7.78546 34.0452 5.67664 33.914 5.41096 34.4221C4.19383 39.2293 5.33292 44.1775 6.96352 48.7355C7.17108 49.0012 8.61072 48.704 9.02584 48.6459C11.0134 48.3686 14.635 47.1348 16.3536 47.3441C16.7787 47.3955 17.0692 47.5417 17.4163 47.7725C18.5321 48.518 22.2716 53.1109 22.7614 54.3629C22.8909 54.6934 23.0653 55.0122 23.0669 55.3825L18.0921 60.8554C17.0394 62.1556 19.0851 62.6338 19.902 63.1901C20.9199 63.8825 22.7166 65.6526 23.9403 65.3819C25.2853 65.0847 28.5399 59.987 29.6275 58.7981C29.762 58.6404 29.9463 58.5158 30.1506 58.4776C30.4744 58.4162 34.6272 59.6815 35.2948 59.899C36.8772 60.4154 38.4912 60.6313 38.7718 62.5558C39.084 64.6879 38.6307 67.2898 38.815 69.4734L38.9761 69.8088C43.4527 70.8582 48.3412 70.3667 52.8992 69.8785C53.3194 69.4435 50.7107 62.0792 50.4733 60.8007C50.3637 60.2112 50.005 58.7699 50.46 58.3215L50.4567 58.3199Z" fill="black"/>
<path id="Vector_2" d="M51.2711 59.7804C50.784 60.2586 51.168 61.8035 51.2853 62.4346C51.5395 63.8016 54.3306 71.6877 53.8826 72.1534C49.0045 72.6761 43.7691 73.2023 38.9763 72.0788L38.8039 71.7197C38.6048 69.3802 39.0901 66.5945 38.7576 64.3136C38.4572 62.2532 36.7292 62.0221 35.0351 61.4693C34.3204 61.2364 29.8743 59.8817 29.5276 59.9475C29.309 59.9884 29.1117 60.1217 28.9677 60.2906C27.8015 61.5617 24.3189 67.0193 22.8789 67.3393C21.5687 67.6291 19.6452 65.734 18.5555 64.9927C17.6808 64.3972 15.4907 63.8852 16.6177 62.4932L21.9438 56.6338C21.9421 56.2374 21.7554 55.8978 21.6167 55.5423C21.0923 54.2019 17.0888 49.2847 15.8942 48.4865C15.5227 48.2376 15.2115 48.0829 14.7564 48.0278C12.9165 47.8038 9.04104 49.1247 6.91131 49.4216C6.46688 49.4838 4.92558 49.802 4.70336 49.5176C2.95585 44.6395 1.73633 39.3418 3.04118 34.1935C3.32562 33.6495 5.58334 33.7882 6.23933 33.8273C7.71485 33.9126 12.6481 35.0272 13.5956 34.629C14.7351 34.149 16.0044 29.1536 16.5822 27.8559C17.0462 26.8123 19.0123 24.2133 18.9217 23.2853C18.8381 22.4356 13.7805 17.8579 13.1529 16.617C12.9965 16.3753 13.0658 16.1548 13.1423 15.9059C13.4356 14.9495 15.8604 12.9105 16.7102 12.1905C19.5421 9.78876 22.7011 7.74081 25.6664 5.50975C25.7944 5.43686 25.8922 5.45997 26.0202 5.52042C26.7953 5.89907 29.5188 11.5718 30.6689 12.7753C30.8805 12.9958 31.2716 13.394 31.5827 13.3869C35.1542 12.0571 39.163 12.0323 42.5264 10.1372L44.2526 2.5836C44.9779 2.10006 50.176 3.8529 51.2249 4.292C52.2738 4.7311 58.6683 8.17457 58.958 8.81633C59.0931 9.11677 59.0149 9.2021 58.9047 9.46699C58.0247 11.5754 55.623 13.9735 54.6648 16.1726C54.6524 17.1664 59.7971 22.3982 60.8122 23.2746C61.4077 23.7884 62.8264 24.9902 63.557 24.9706C65.5072 24.3235 67.532 23.9697 69.5142 23.4524C70.2449 23.2622 71.4786 22.4622 72.0884 23.0044C72.2128 23.1146 72.8972 24.5866 73.0359 24.8942C74.499 28.1119 74.9896 31.6407 75.3487 35.1304C74.9132 36.453 68.5685 36.2717 67.6529 37.0308C67.1089 37.4823 66.3907 39.7702 66.1898 40.5364C65.7525 42.188 65.1392 45.2065 65.6868 46.7941C65.7596 47.0074 65.877 47.1781 66.0743 47.2936L74.5736 51.3913C74.7639 51.8002 72.4688 55.5565 72.0706 56.1752C71.2422 57.464 68.556 61.5208 67.0716 61.6577C66.7658 61.6861 66.6805 61.6133 66.4334 61.4888C64.501 60.5235 62.3517 57.88 60.27 56.8205C59.9233 56.6445 59.4985 56.3992 59.1056 56.3725C58.0674 56.3014 54.7448 58.2693 53.5982 58.8258C53.1733 59.032 51.4347 59.6151 51.2676 59.7786L51.2711 59.7804ZM55.2159 37.0645C55.2159 28.7323 48.4605 21.9787 40.1265 21.9787C31.7925 21.9787 25.0371 28.7323 25.0371 37.0645C25.0371 45.3968 31.7925 52.1504 40.1265 52.1504C48.4605 52.1504 55.2159 45.3968 55.2159 37.0645Z" fill="white"/>
<path id="Vector_3" d="M40.0473 51.1935C47.8314 51.1935 54.1416 44.8848 54.1416 37.1026C54.1416 29.3204 47.8314 23.0117 40.0473 23.0117C32.2633 23.0117 25.9531 29.3204 25.9531 37.1026C25.9531 44.8848 32.2633 51.1935 40.0473 51.1935Z" fill="black"/>
</g>
</svg>
