<svg width="100" height="100" viewBox="0 0 100 100" fill="none" xmlns="http://www.w3.org/2000/svg">
<path d="M70.6419 9.89373C71.859 11.2322 71.5303 16.7009 72.0604 18.6266C75.0946 15.1369 78.0524 12.4621 82.6853 15.3092C83.7095 15.9391 84.2565 16.6668 85.1216 17.4073C85.8001 17.9904 88.1367 18.9139 86.7076 20.3693C84.7569 22.3568 83.5971 18.6351 82.7044 17.6946C78.6101 13.3792 74.7066 17.9691 72.4378 21.5567L74.7193 45.0741C74.9101 45.2976 77.5796 43.0314 77.9803 42.8718C78.6885 42.5888 79.3437 42.7675 80.0328 42.5271C80.7219 42.2866 86.7034 37.3797 87.6384 36.5328C90.221 34.1964 94.1309 29.9831 92.8841 26.1785C91.8897 23.1398 87.1868 24.1676 86.9726 21.6801C86.8624 20.4013 88.0116 19.9587 89.0887 20.363C91.9173 23.5207 95.9119 24.44 95.0977 29.5937C94.5168 33.2707 89.1523 37.7691 86.2496 39.9502C84.9923 40.895 81.7185 42.5951 80.847 43.6123C80.4781 44.0421 80.5565 44.6698 80.2745 45.1763C79.5536 46.47 75.5547 47.7021 75.2918 48.4575L78.4468 78.3416C78.3026 80.4439 77.1492 80.9227 75.3066 81.3376C68.4325 82.8825 60.5724 83.0314 53.5881 84.3933C53.2298 84.4635 52.1463 84.4784 52.3541 85.0125C52.9753 86.6127 57.5001 90.1875 59.0925 91.0749C74.0281 99.4162 87.7741 85.0253 88.8216 70.3194C88.9403 68.6618 89.0803 64.6039 88.847 63.1016C88.7664 62.5782 88.2236 62.5441 87.9544 62.1207C87.0341 60.6822 87.0299 59.1416 87.4646 57.5202C87.3225 56.9393 85.9358 57.1882 85.2552 56.8052C85.1661 56.7541 83.8664 55.4221 83.8091 55.3306C81.9241 52.3685 83.7391 46.2232 87.6151 46.9552C87.7805 46.9871 90.5412 47.9681 90.7638 48.0723C92.7802 49.0256 93.0113 52.4962 91.9809 54.2517C91.631 54.8454 90.9546 55.2199 90.5751 55.7796C89.3389 57.6053 90.2804 57.6563 90.4373 59.3523C90.6769 61.9547 90.3546 68.3107 90.1701 71.1344C89.0527 88.2192 72.934 103.085 56.5269 92.0473C53.7132 90.1535 51.8303 87.8447 49.7715 85.2019C48.5566 85.0848 47.331 85.3168 46.1309 85.4551C41.7652 85.9594 36.7909 87.3 32.5078 87.5511C31.1572 87.6298 29.6008 87.3511 29.0474 85.9552C28.0509 83.4357 28.1505 78.8374 27.5844 76.0668L25.5362 78.1501C14.2645 79.8077 4.83541 71.0621 4 60.0289C8.68804 58.8458 13.5839 56.3051 13.2107 50.6875C14.3536 50.6811 14.8158 51.8366 15.8569 52.4388C18.1129 53.7389 22.1733 54.6773 24.6732 53.7389C23.6448 44.489 22.7331 35.2284 21.7259 25.9763C21.41 23.0632 20.4431 19.0649 20.4177 16.3157C20.3923 13.5665 21.3549 13.0983 23.7593 12.7834C26.7935 12.3855 30.6207 12.5727 33.551 11.9237C34.5285 11.7067 35.1794 11.1215 36.0339 10.9407C36.8884 10.7598 39.9099 10.8747 40.3848 10.164C41.3496 8.72552 40.9976 5.73158 43.1985 4.50592C47.0363 2.36739 49.1184 7.56369 51.2006 9.7618C52.5322 10.2065 54.5253 9.43198 55.6533 9.54476C56.6159 9.64051 57.0972 10.1491 58.6175 10.0895C61.7174 9.96608 66.0705 8.97874 69.0071 9.26175C69.5881 9.31708 70.2199 9.44049 70.6355 9.89799L70.6419 9.89373ZM46.591 7.52114C46.591 6.66785 45.9019 5.97629 45.0517 5.97629C44.2014 5.97629 43.5123 6.66785 43.5123 7.52114C43.5123 8.37442 44.2014 9.06598 45.0517 9.06598C45.9019 9.06598 46.591 8.37442 46.591 7.52114ZM66.9462 29.5278L71.2504 19.8054C70.8603 17.2903 70.943 14.3346 70.3853 11.8897C70.0736 10.5278 70.063 10.2065 68.4664 10.0746L57.587 11.1832L57.1863 11.5812L56.9085 14.5091L56.4272 14.8283L36.2544 16.4796C34.8932 16.2136 35.296 13.9623 34.8147 12.9004L34.3949 12.7302C30.7988 13.16 26.7575 13.2366 23.2271 13.841C20.7824 14.2602 21.709 15.3262 21.7365 16.8924C21.9083 26.6445 23.5367 37.8074 24.669 47.6106C25.9687 58.8629 27.1985 71.2302 29.2383 82.2994C29.4036 83.1932 29.7662 85.8913 30.5232 86.3531C31.9502 87.2213 46.4659 83.9762 49.163 84.0784C47.5876 80.844 46.8751 76.6456 47.6915 73.1176C48.3212 70.3918 50.0026 67.9532 51.0267 65.3806C47.3904 65.6551 43.754 66.402 40.1134 66.5871C39.6575 66.6105 39.4349 66.919 39.0532 66.3147C39.0617 65.9636 40.4696 65.7466 40.8131 65.6827C44.2438 65.038 48.0943 65.0891 51.5653 64.4486L57.1502 56.0306L40.2428 58.433L37.9846 58.3032C38.3535 57.8713 38.9472 57.7606 39.4752 57.6627C45.4821 56.5456 51.9872 56.3754 58.0259 55.171C59.6437 52.9516 63.0363 49.9576 63.8038 47.3425C63.9883 46.7105 63.0151 46.9318 62.6164 46.9552C57.0909 47.2701 50.3885 48.849 44.7357 49.5853C42.2295 49.9108 39.7042 50.2279 37.1874 50.4236C36.9605 49.6895 38.2263 49.7534 38.6928 49.6661C46.7373 48.1809 55.0024 47.5191 63.1062 46.3764L63.5345 45.9976C62.5019 43.6293 62.784 41.4099 63.0129 38.9352L38.6483 42.4058L36.3901 42.144L63.2462 38.101C63.4964 37.9351 64.2258 33.9623 64.6626 33.2431C65.1969 32.3621 66.2592 32.8473 66.4691 31.0428C66.5454 30.3853 65.7673 30.6321 65.2838 30.6598C55.9183 31.1769 45.4545 34.4964 35.9851 34.9284C34.4988 34.9965 35.771 33.9048 36.5534 33.8921L66.9568 29.5342L66.9462 29.5278ZM83.4677 16.2561C75.4444 10.796 70.7861 21.5375 68.282 27.5297C67.5929 29.1788 66.785 31.0641 66.467 32.7856C67.6098 32.2132 67.4953 30.596 67.93 29.581C69.4948 25.9274 73.3029 17.4882 76.9329 15.905C79.5155 14.7772 81.2244 15.3943 83.1052 17.2839L83.4656 16.254L83.4677 16.2561ZM80.0477 43.4718C80.2321 43.6527 81.8542 42.4653 82.1531 42.2483C85.9273 39.5097 93.8361 33.9538 94.3959 29.1511C94.6397 27.0594 94.4722 25.738 92.9711 24.2272C92.7378 23.9931 90.6832 22.4994 91.2324 23.5654C91.3681 23.8314 92.5109 24.4506 92.9435 25.0549C93.7768 26.2189 94.0545 27.7489 93.868 29.1554C93.2891 33.5325 84.1229 39.8714 80.6541 42.61C80.3339 42.8633 79.9289 42.9143 80.0498 43.4697L80.0477 43.4718ZM66.9992 46.4147C68.9223 48.1915 72.4951 47.168 74.1277 45.4486L71.789 23.4356C71.4561 23.459 71.3564 23.8165 71.208 24.0527C70.7415 24.7911 69.0389 28.2191 68.8735 28.9256C68.7082 29.632 69.5372 29.1724 69.6623 29.315C70.3599 30.1087 68.6785 30.1853 68.3328 30.5194C67.3321 31.4833 67.6861 33.5537 67.4699 34.7283C67.3342 35.4688 66.5772 36.4455 66.4648 37.1967C66.397 37.6372 66.4606 37.6308 66.8677 37.601C67.9682 37.5223 69.4291 36.8796 70.4617 37.4605L65.9941 38.4521C64.8407 41.1056 64.3848 43.2569 65.9687 45.8466C66.2252 46.0104 69.5372 45.3167 70.3217 45.3316C70.8688 45.3423 71.102 45.1656 70.996 45.8764L67.0013 46.4147H66.9992ZM88.8301 55.5008C85.6368 54.1751 86.3302 50.0896 88.3 47.8851C87.4328 47.0105 86.4468 47.5318 85.6326 48.1426C82.7871 50.2811 83.7604 57.7968 88.1134 56.5073C88.442 56.4094 89.0463 55.8072 88.8322 55.5008H88.8301ZM72.0561 62.176C72.1367 62.7143 71.8505 62.8718 71.3819 62.9676C66.8423 63.8868 61.4121 63.9506 56.7495 64.5826C56.1176 64.6677 54.4489 64.8231 54.0652 65.0933C51.3236 69.2384 49.6676 74.6199 50.2528 79.646C50.3228 80.2545 51.0776 82.9442 51.4148 83.2889C51.8113 83.6911 52.5088 83.5783 53.0135 83.5464C59.014 83.1825 67.366 81.5823 73.4789 80.5652C75.0606 80.3013 77.6284 80.4163 77.6581 78.3458C77.6899 76.1115 76.829 72.475 76.5873 70.0534C75.8727 62.8846 75.226 55.7072 74.4521 48.549C71.3628 50.7322 68.0106 48.1936 65.1587 50.3087C64.3763 50.8897 62.4362 53.0665 61.8065 53.89C61.6029 54.1581 61.2891 54.2283 61.41 54.6922C64.5035 54.4773 67.6035 53.7666 70.6716 53.4346C71.0532 53.3942 71.6321 53.0707 71.5239 53.7538C71.2356 54.2326 70.7733 54.0857 70.3493 54.1794C67.12 54.8858 63.7339 55.0241 60.511 55.7966L54.485 64.0421L72.0561 62.176ZM90.8698 49.1767C88.9445 47.1956 86.5592 51.2174 88.0731 53.7176C90.38 57.5287 93.2849 51.66 90.8698 49.1767ZM24.9298 54.6922C21.0962 55.2965 16.8598 54.7475 13.7493 52.2898C13.321 56.9754 9.15664 59.5395 4.95415 60.4332L4.71243 60.7418C5.70898 67.2638 9.06334 73.2261 15.1635 76.1158C17.4959 77.2202 22.8964 78.7118 25.2626 77.6053C25.5234 77.484 27.207 75.5562 27.2706 75.3455C27.4678 74.6922 27.0268 70.6067 26.5306 70.9918C26.2253 72.0664 25.0994 75.3093 23.9926 75.5264C22.6886 75.7838 19.2197 74.9242 17.8627 74.4752C12.3753 72.6601 8.92128 67.9596 7.62364 62.4441C10.1998 62.2526 12.9096 61.0759 14.061 58.616C14.5444 57.584 14.485 56.3839 15.2123 55.5008C17.8373 57.7542 21.9337 58.4437 25.1672 57.3372L24.9298 54.6922ZM89.5934 61.3333C90.2676 55.5178 86.9133 56.4392 88.3021 61.6419L89.5934 61.3333ZM19.8494 61.9334C19.4169 61.561 17.339 62.4228 17.0697 62.9761C16.6986 63.7379 17.3284 64.4805 17.0973 64.8486C16.6011 65.6423 14.8412 65.072 15.4052 67.5915C15.8017 69.3661 17.0294 68.1809 18.1511 67.8447L19.4614 69.5576L22.15 68.5916C22.5868 68.0107 21.6814 67.3404 21.7683 66.8871C21.8913 66.2339 23.4476 66.1424 23.295 65.0465C22.9833 62.8165 21.2255 63.8762 20.4007 63.3846L19.8494 61.9355V61.9334Z" fill="black"/>
<path d="M66.9456 29.5279L36.5422 33.8858C35.7598 33.8986 34.4876 34.9902 35.974 34.9221C45.4434 34.4902 55.9072 31.1706 65.2727 30.6536C65.7561 30.6259 66.5343 30.3791 66.4579 31.0366C66.2501 32.841 65.1857 32.3559 64.6514 33.2368C64.2146 33.9561 63.4852 37.9288 63.235 38.0948L36.379 42.1378L38.6371 42.3995L63.0018 38.9289C62.7728 41.4037 62.4929 43.6231 63.5234 45.9914L63.0951 46.3702C54.9933 47.5128 46.7262 48.1746 38.6816 49.6599C38.2131 49.7471 36.9493 49.6833 37.1762 50.4174C39.6952 50.2216 42.2205 49.9046 44.7246 49.579C50.3774 48.8428 57.0797 47.266 62.6053 46.9489C63.0039 46.9255 63.9771 46.7064 63.7927 47.3362C63.023 49.9535 59.6326 52.9453 58.0148 55.1647C51.9782 56.3712 45.4709 56.5415 39.464 57.6565C38.934 57.7544 38.3424 57.865 37.9735 58.297L40.2316 58.4268L57.1391 56.0244L51.5541 64.4423C48.0853 65.0828 44.2327 65.0317 40.802 65.6765C40.4585 65.7403 39.0506 65.9595 39.0421 66.3085C39.4259 66.9128 39.6464 66.6043 40.1023 66.5809C43.745 66.3957 47.3792 65.6488 51.0156 65.3743C49.9915 67.947 48.3101 70.3855 47.6803 73.1113C46.864 76.6415 47.5785 80.8398 49.1518 84.0721C46.4548 83.97 31.939 87.2171 30.512 86.3468C29.7551 85.8851 29.3925 83.1848 29.2271 82.2932C27.1874 71.2239 25.9597 58.8545 24.6578 47.6043C23.5255 37.8011 21.8971 26.6382 21.7254 16.8861C21.6978 15.32 20.7734 14.2539 23.216 13.8347C26.7463 13.2304 30.7877 13.1538 34.3837 12.724L34.8036 12.8942C35.287 13.9539 34.8841 16.2052 36.2433 16.4733L56.4161 14.8221L56.8974 14.5029L57.1751 11.5749L57.5759 11.177L68.4553 10.0684C70.0519 10.2003 70.0625 10.5216 70.3742 11.8834C70.9339 14.3284 70.8491 17.284 71.2393 19.7992L66.935 29.5215L66.9456 29.5279ZM68.5952 20.7653L35.1153 25.7743L34.5173 26.6404L68.4426 21.5909L68.5952 20.7653ZM28.326 24.821C23.8436 25.6722 26.5173 32.3601 30.5311 29.4556C33.2663 27.4766 30.8513 24.3401 28.326 24.821ZM32.3016 37.2436C35.0728 34.6966 29.2971 31.2196 27.7938 34.7263C26.687 37.3117 30.5884 38.8183 32.3016 37.2436ZM30.9891 41.1143C28.0652 41.5994 28.2115 45.7637 31.182 45.6275C34.8841 45.4594 34.0954 40.5972 30.9891 41.1143ZM31.7842 48.8726C27.3103 49.7492 30.2639 56.3138 33.86 52.8347C35.8425 50.9175 34.1505 48.4087 31.7842 48.8726ZM33.3787 56.8904C30.512 57.1394 30.2279 60.9547 32.802 61.359C36.9218 62.0059 37.3755 56.5436 33.3787 56.8904ZM34.1866 64.6317C30.0519 65.1977 31.657 71.4303 35.6793 69.3535C38.4696 67.9129 37.1126 64.2295 34.1866 64.6317Z" fill="white"/>
<path d="M72.0554 62.1758L54.4843 64.042L60.5102 55.7964C63.7331 55.024 67.1193 54.8857 70.3485 54.1792C70.7726 54.0856 71.2348 54.2324 71.5232 53.7536C71.6335 53.0685 71.0525 53.3919 70.6708 53.4345C67.6027 53.7664 64.5028 54.4771 61.4092 54.692C61.2884 54.2282 61.6022 54.1579 61.8057 53.8898C62.4355 53.0642 64.3756 50.8895 65.158 50.3086C68.0098 48.1935 71.3599 50.732 74.4514 48.5488C75.2253 55.7092 75.872 62.8844 76.5865 70.0533C76.8283 72.4748 77.6891 76.1114 77.6573 78.3457C77.6276 80.4161 75.0599 80.3012 73.4781 80.5651C67.3674 81.5822 59.0154 83.1824 53.0127 83.5462C52.5081 83.576 51.8105 83.6909 51.414 83.2888C51.0769 82.944 50.3221 80.2544 50.2521 79.6458C49.6669 74.6197 51.3228 69.2404 54.0644 65.0932C54.4503 64.8208 56.119 64.6676 56.7488 64.5825C61.4114 63.9505 66.8394 63.8867 71.3811 62.9674C71.8497 62.8717 72.136 62.7142 72.0554 62.1758Z" fill="white"/>
<path d="M24.9302 54.6914L25.1677 57.3364C21.9321 58.4429 17.8356 57.7535 15.2128 55.5C14.4876 56.3831 14.5448 57.5832 14.0614 58.6153C12.9101 61.0751 10.2003 62.2518 7.6241 62.4433C8.92174 67.9588 12.3758 72.6593 17.8632 74.4744C19.218 74.9234 22.6869 75.7831 23.993 75.5256C25.0998 75.3064 26.2257 72.0657 26.5311 70.9911C27.0272 70.6059 27.4682 74.6915 27.271 75.3447C27.2074 75.5554 25.526 77.4811 25.2631 77.6046C22.8968 78.7089 17.4963 77.2194 15.164 76.115C9.0638 73.2275 5.70944 67.2651 4.71289 60.741L4.95461 60.4325C9.15498 59.5388 13.3214 56.9747 13.7497 52.2891C16.8602 54.7468 21.0967 55.2958 24.9302 54.6914Z" fill="white"/>
<path d="M66.9995 46.4146L70.9942 45.8763C71.1002 45.1656 70.867 45.3422 70.3199 45.3315C69.5354 45.3166 66.2214 46.0103 65.9669 45.8465C64.383 43.2568 64.8389 41.1055 65.9924 38.4521L70.4599 37.4605C69.4273 36.8796 67.9664 37.5222 66.8659 37.6009C66.461 37.6307 66.3973 37.6371 66.4631 37.1966C66.5776 36.4455 67.3324 35.4688 67.4681 34.7283C67.6844 33.5515 67.3303 31.4832 68.3311 30.5193C68.6767 30.1873 70.3602 30.1107 69.6605 29.3149C69.5354 29.1723 68.7043 29.6383 68.8718 28.9255C69.0393 28.2127 70.7419 24.791 71.2063 24.0526C71.3547 23.8186 71.4564 23.459 71.7872 23.4355L74.1259 45.4486C72.4912 47.1679 68.9184 48.1914 66.9974 46.4146H66.9995Z" fill="white"/>
<path d="M19.8493 61.9325L20.4006 63.3816C21.2254 63.8752 22.9832 62.8155 23.2949 65.0434C23.4496 66.1393 21.8933 66.2308 21.7682 66.8841C21.6813 67.3394 22.5867 68.0076 22.1499 68.5885L19.4613 69.5546L18.1509 67.8416C17.0293 68.1778 15.8016 69.3631 15.4051 67.5884C14.8411 65.069 16.601 65.6371 17.0971 64.8455C17.3283 64.4774 16.6985 63.7348 17.0696 62.973C17.3389 62.4198 19.4168 61.558 19.8493 61.9303V61.9325Z" fill="white"/>
<path d="M88.8303 55.5016C89.0465 55.808 88.4422 56.4102 88.1115 56.5081C83.7605 57.7976 82.7852 50.2819 85.6307 48.1433C86.4449 47.5326 87.4287 47.0113 88.2981 47.8859C86.3283 50.0904 85.637 54.1759 88.8281 55.5016H88.8303Z" fill="white"/>
<path d="M90.8699 49.1762C93.285 51.6594 90.3801 57.5303 88.0732 53.7171C86.5593 51.2168 88.9447 47.193 90.8699 49.1762Z" fill="white"/>
<path d="M83.4674 16.2553L83.107 17.2852C81.2241 15.3935 79.5151 14.7785 76.9347 15.9063C73.3068 17.4916 69.4966 25.9287 67.9318 29.5823C67.4971 30.5973 67.6116 32.2145 66.4688 32.7869C66.7868 31.0633 67.5946 29.178 68.2837 27.531C70.7857 21.5388 75.4462 10.7973 83.4695 16.2574L83.4674 16.2553Z" fill="white"/>
<path d="M80.0473 43.4726C79.9264 42.9172 80.3314 42.8661 80.6516 42.6129C84.1204 39.8743 93.2866 33.5332 93.8654 29.1582C94.052 27.7517 93.7743 26.2218 92.941 25.0578C92.5084 24.4535 91.3656 23.8321 91.2299 23.5683C90.6807 22.5001 92.7353 23.9939 92.9685 24.23C94.4718 25.743 94.6372 27.0623 94.3934 29.154C93.8357 33.9566 85.9248 39.5126 82.1506 42.2511C81.8517 42.4682 80.2296 43.6556 80.0451 43.4747L80.0473 43.4726Z" fill="white"/>
<path d="M45.053 9.06626C45.9032 9.06626 46.5924 8.37461 46.5924 7.52141C46.5924 6.66821 45.9032 5.97656 45.053 5.97656C44.2029 5.97656 43.5137 6.66821 43.5137 7.52141C43.5137 8.37461 44.2029 9.06626 45.053 9.06626Z" fill="white"/>
<path d="M89.5945 61.3341L88.3033 61.6427C86.9144 56.44 90.2688 55.5186 89.5945 61.3341Z" fill="white"/>
<path d="M68.5955 20.7656L68.4407 21.5912L34.5176 26.6407L35.1155 25.7747L68.5955 20.7656Z" fill="black"/>
<path d="M34.1877 64.6318C37.1137 64.2317 38.4707 67.913 35.6804 69.3535C31.6581 71.4304 30.053 65.1978 34.1877 64.6318ZM34.1177 65.5021C31.533 65.4957 32.7501 69.96 35.5192 68.6556C36.9801 67.9683 36.009 65.5063 34.1177 65.5021Z" fill="black"/>
<path d="M31.7855 48.8725C34.1539 48.4086 35.8459 50.9174 33.8613 52.8347C30.2631 56.3138 27.3094 49.7492 31.7855 48.8725ZM31.5204 49.6641C29.8984 49.945 30.2843 52.4346 31.7791 52.7708C34.7412 53.4368 34.2132 49.1981 31.5204 49.6641Z" fill="black"/>
<path d="M28.3272 24.8209C30.8525 24.34 33.2675 27.4765 30.5323 29.4555C26.5185 32.36 23.8448 25.6721 28.3272 24.8209ZM28.0536 25.6253C25.787 26.1189 26.5779 29.7236 29.5675 29.3001C31.9296 28.9639 30.9564 24.9933 28.0536 25.6253Z" fill="black"/>
<path d="M33.3805 56.8909C37.3773 56.544 36.9235 62.0042 32.8037 61.3594C30.2297 60.9551 30.5138 57.1398 33.3805 56.8909ZM33.1175 57.6761C31.0142 58.0782 32.1019 60.9339 33.8109 60.7828C35.7404 60.6125 35.4117 57.2356 33.1175 57.6761Z" fill="black"/>
<path d="M32.302 37.2438C30.5887 38.8184 26.6873 37.3119 27.7942 34.7265C29.2975 31.2197 35.0732 34.6967 32.302 37.2438ZM31.5047 34.4711C30.7753 33.6838 29.1618 33.2412 28.5872 34.4562C27.6521 36.4288 30.7987 38.08 31.8334 36.6352C32.3105 36.0521 31.9648 34.9669 31.5047 34.4711Z" fill="black"/>
<path d="M30.9908 41.1147C34.0971 40.5976 34.888 45.4598 31.1837 45.6279C28.2132 45.762 28.0669 41.5998 30.9908 41.1147ZM30.7236 41.9147C30.4098 41.9701 30.0769 42.168 29.8564 42.402C29.0995 43.6745 30.5879 45.2832 31.9301 45.0385C33.2723 44.6682 32.8249 41.5445 30.7236 41.9147Z" fill="black"/>
<path d="M34.1185 65.502C36.0077 65.5062 36.9788 67.9682 35.52 68.6555C32.7509 69.9599 31.5338 65.4935 34.1185 65.502Z" fill="white"/>
<path d="M31.5206 49.6648C34.2156 49.1988 34.7414 53.4375 31.7793 52.7715C30.2845 52.4353 29.8986 49.9457 31.5206 49.6648Z" fill="white"/>
<path d="M28.0539 25.6247C30.9566 24.9927 31.932 28.9633 29.5678 29.2995C26.5781 29.723 25.7873 26.1183 28.0539 25.6247Z" fill="white"/>
<path d="M33.1163 57.6763C35.4105 57.2358 35.7391 60.6128 33.8096 60.783C32.1006 60.9341 31.0129 58.0785 33.1163 57.6763Z" fill="white"/>
<path d="M31.5051 34.4703C31.9652 34.9661 32.3108 36.0513 31.8338 36.6344C30.7969 38.0792 27.6525 36.428 28.5876 34.4554C29.1643 33.2404 30.7757 33.6851 31.5051 34.4703Z" fill="white"/>
<path d="M30.7225 41.9132C32.8238 41.543 33.2733 44.6667 31.929 45.037C30.5847 45.2817 29.0983 43.673 29.8553 42.4005C30.0758 42.1665 30.4087 41.9686 30.7225 41.9132Z" fill="white"/>
</svg>
