<svg width="96" height="91" viewBox="0 0 96 91" fill="none" xmlns="http://www.w3.org/2000/svg">
<g id="mL5XDr.tif">
<g id="Group">
<path id="Vector" d="M7.86505 81.3705C6.51734 70.7086 5.25018 60.0173 4.12054 49.326C3.31113 41.6641 3.01447 33.5936 1.93591 26.0162C1.70802 24.415 1.3819 22.9023 0.869141 21.3758C10.5369 16.5527 20.519 12.3858 30.34 7.88693C34.1945 6.12076 37.9763 4.03044 41.8446 2.32714C44.9133 0.975501 47.9741 -0.957656 48.426 3.85756C48.6991 6.76711 48.479 10.0892 48.6499 13.0479C48.8936 17.2403 49.5497 21.4151 49.8228 25.6036C50.2432 32.0573 50.2766 38.5719 50.8071 45.0138C50.8896 46.0236 51.312 50.9959 51.7854 51.4891C51.9878 51.6718 52.2334 51.7111 52.4888 51.7661C56.7323 52.6835 62.5494 53.0568 66.9894 53.544C75.1267 54.4399 83.8672 54.6678 91.8709 55.9271C95.3463 56.4732 97.5073 56.7561 94.7373 60.3061C92.5527 63.1057 89.6018 65.7186 87.2954 68.5535C82.4173 74.5494 77.7534 81.2467 72.5728 86.9774C71.6494 87.999 69.9972 89.8536 68.6672 90.1306C66.8106 90.5176 61.9129 89.1856 59.7047 88.8693C45.8897 86.8969 31.9647 85.3232 18.1772 83.1249C15.8963 82.7614 13.5899 82.4333 11.3365 81.9225C10.7451 81.7889 9.87679 81.288 9.47012 81.2349C8.99469 81.174 8.39352 81.5551 7.86505 81.3705ZM9.80803 79.4295L49.3317 52.7601L49.6794 52.3142L46.2905 2.36054C42.1471 4.25047 38.0254 6.20917 33.8703 8.08143C25.1574 12.0086 16.1163 15.6726 7.51732 19.7786C6.72559 20.1558 3.08716 21.8355 2.84748 22.366L9.80803 79.4295ZM94.1538 58.2531L53.8424 53.155C49.9957 52.9645 50.2157 53.9684 47.4948 55.8269C36.5225 63.3198 25.3008 70.4709 14.3364 77.9776C13.1459 78.7929 11.8099 79.6377 10.7884 80.6062C30.3242 82.8243 49.7383 85.9991 69.2998 88.0324L94.1538 58.2551V58.2531Z" fill="black"/>
<path id="Vector_2" d="M94.1525 58.2535L69.2985 88.0308C49.7371 85.9975 30.323 82.8227 10.7871 80.6047C11.8067 79.6342 13.1446 78.7913 14.3352 77.976C25.2995 70.4693 36.5213 63.3182 47.4935 55.8253C50.2145 53.9668 49.9925 52.9648 53.8411 53.1534L94.1525 58.2516V58.2535ZM54.4776 55.7487C52.2871 56.1239 47.1124 60.222 45.134 61.7033C37.8729 67.1394 30.9458 73.0705 23.7456 78.5733C23.4469 79.5438 26.1404 80.0074 26.8319 80.1567C30.8908 81.0388 35.3563 81.3473 39.4957 82.0074C43.8944 82.7087 45.5564 84.3472 49.6094 81.473C54.1417 78.257 58.9471 73.1353 63.1572 69.3279C67.0726 65.7897 71.1492 62.4067 74.9153 58.7152C75.0724 57.8409 72.0686 57.3753 71.4714 57.2948C67.5088 56.7663 63.1768 56.7388 59.1416 56.287C57.5365 56.1062 56.1868 55.454 54.4776 55.7467V55.7487ZM85.1292 64.5284C83.3944 63.7151 81.6852 63.1552 79.8346 62.6621C78.6991 62.3575 76.2394 61.6621 75.1942 61.5933C74.9644 61.5776 74.7483 61.5501 74.54 61.6817L59.6327 77.9603C62.6719 79.3552 65.6601 81.0388 68.9468 81.7834C70.5971 81.7873 72.2159 79.9917 73.265 78.8463C75.6677 76.2217 77.9073 73.0685 80.2315 70.3181C81.5949 68.7032 83.8168 66.6482 84.9366 65.0215C85.0506 64.8565 85.2097 64.827 85.1292 64.5304V64.5284Z" fill="white"/>
<path id="Vector_3" d="M9.8082 79.4283L2.84766 22.3648C3.08734 21.8344 6.72576 20.1566 7.51749 19.7774C16.1165 15.6714 25.1575 12.0075 33.8705 8.08026C38.0237 6.20801 42.1473 4.24931 46.2906 2.35938L49.6796 52.313L49.3318 52.759L9.8082 79.4283ZM44.33 7.06653L6.11281 24.5514C5.94975 24.8107 6.23068 27.7399 6.27783 28.3431C6.72576 34.0109 7.42319 39.7279 8.06757 45.38C9.09898 54.4544 10.3858 63.5132 11.5763 72.564L47.0352 50.5606C46.55 36.0384 46.0058 21.4925 44.33 7.06457V7.06653Z" fill="white"/>
<path id="Vector_4" d="M54.4777 55.7483C56.1869 55.4556 57.5346 56.1078 59.1417 56.2886C63.177 56.7404 67.5089 56.7679 71.4715 57.2964C72.0667 57.377 75.0726 57.8406 74.9154 58.7168C71.1493 62.4083 67.0727 65.7913 63.1573 69.3295C58.9472 73.1349 54.1398 78.2586 49.6095 81.4746C45.5565 84.3508 43.8945 82.7104 39.4958 82.009C35.3564 81.3489 30.8909 81.0404 26.832 80.1583C26.1425 80.009 23.447 79.5454 23.7457 78.5749C30.9459 73.0721 37.873 67.141 45.1342 61.705C47.1125 60.2237 52.2872 56.1255 54.4777 55.7503V55.7483ZM58.4521 57.2709C56.8333 57.1491 55.1673 57.1491 53.6428 56.5499C52.6782 57.3887 51.6153 58.1255 50.6625 58.9781C50.5328 59.094 50.2853 58.9663 50.411 59.426L54.9709 60.1765C55.6722 60.0488 57.513 58.3789 58.124 57.8229C58.3146 57.65 58.5464 57.65 58.4541 57.2709H58.4521ZM64.729 57.8602C63.3773 57.8386 61.955 57.4045 60.6053 57.7561C59.9491 57.927 58.0278 59.8091 57.57 60.4083C57.4187 60.6048 57.1908 60.6559 57.2773 60.9957C58.7331 61.3729 59.8941 61.9662 61.399 61.2924C61.951 61.0448 64.0237 58.9919 64.4382 58.4477C64.5895 58.2512 64.8194 58.2001 64.7309 57.8583L64.729 57.8602ZM72.1826 58.8425C70.4145 58.3651 68.4303 57.9015 66.6386 58.4928C65.0021 59.0331 63.6976 61.3042 62.5719 62.5635C65.0217 63.4024 66.5541 63.8798 68.7446 62.1686L72.1807 58.8425H72.1826ZM53.1556 61.5871C48.1812 59.483 45.9436 63.035 42.5664 65.8011C47.0536 68.469 50.2224 64.4141 53.1556 61.5871ZM59.4324 62.9603C57.8333 62.4515 56.4345 62.3356 54.853 62.9859C53.3972 63.5851 51.1379 65.8974 49.9238 67.0781C49.7333 67.2647 49.5525 67.3335 49.6272 67.6616C52.6114 68.8345 54.6074 67.9956 56.796 65.9092L59.4344 62.9603H59.4324ZM65.7093 64.3316C64.5659 64.1685 63.4441 63.8424 62.2673 63.9308C59.4148 64.145 57.4954 67.6832 55.5092 69.4258C60.2026 71.7145 62.7094 66.9681 65.7093 64.3316ZM34.9144 72.1723C39.5783 74.41 41.9712 71.7204 44.9141 68.5476C40.6844 65.7677 37.7885 69.5555 34.9144 72.1723ZM51.7843 69.6262C47.1086 67.917 45.085 71.2568 42.1087 73.9738C41.9181 74.1467 41.6883 74.1526 41.7806 74.5239C46.1007 76.9345 48.694 72.5947 51.5328 70.0721C51.6645 69.9562 51.9081 70.0839 51.7843 69.6262ZM57.8627 71.5829C57.1162 70.7735 55.4915 70.6733 54.4483 70.8187C51.9415 71.1664 49.5702 74.852 47.6685 76.3903C52.0554 79.3234 54.7449 73.5573 57.8647 71.5829H57.8627ZM33.7101 73.1782C33.5195 73.0701 33.2503 73.2882 33.0834 73.3825C32.5234 73.7007 26.2171 78.6869 26.4804 79.0346C31.2897 80.7124 33.9772 77.9207 37.0675 74.8206C37.0774 74.4237 33.7494 74.2351 33.7081 73.1782H33.7101ZM33.934 80.2134C35.9929 80.3686 37.983 81.0601 40.0734 80.7634L43.7393 77.1761C39.7315 74.5632 38.4015 76.8677 35.598 79.0346C35.0519 79.457 34.3505 79.6868 33.936 80.2134H33.934ZM49.2343 78.6476C48.4523 78.571 47.7647 78.0877 46.9691 78.0523C44.9593 77.9619 43.7354 80.1348 42.3739 81.2939C45.0693 82.6593 48.1419 81.3292 49.2362 78.6476H49.2343Z" fill="black"/>
<path id="Vector_5" d="M85.1312 64.5288C85.2118 64.8255 85.0526 64.853 84.9387 65.02C83.8189 66.6467 81.5969 68.7016 80.2335 70.3165C77.9094 73.0669 75.6717 76.2201 73.2671 78.8448C72.218 79.9921 70.5991 81.7858 68.9489 81.7819C65.6621 81.0373 62.676 79.3536 59.6348 77.9588L74.5421 61.6802C74.7503 61.5485 74.9664 61.5761 75.1963 61.5918C76.2414 61.6605 78.7011 62.358 79.8366 62.6605C81.6873 63.1556 83.3965 63.7155 85.1312 64.5269V64.5288ZM82.9741 64.5288C81.0017 64.5072 76.8957 62.2597 75.1315 63.0593C74.6364 63.2833 72.0765 66.2302 71.497 66.8765C68.1748 70.5817 65.116 74.5482 61.7899 78.2515C63.8626 78.5265 66.7034 80.332 68.611 80.5736C68.833 80.6011 69.0353 80.6542 69.2377 80.5127L82.9741 64.5288Z" fill="black"/>
<path id="Vector_6" d="M44.3301 7.06836C46.0058 21.4983 46.55 36.0421 47.0353 50.5644L11.5764 72.5678C10.3859 63.515 9.09905 54.4582 8.06764 45.3838C7.42522 39.7316 6.72582 34.0147 6.27789 28.3468C6.23074 27.7437 5.94981 24.8145 6.11287 24.5552L44.3301 7.07032V7.06836Z" fill="black"/>
<path id="Vector_7" d="M33.7104 73.1785C33.7516 74.2355 37.0796 74.4241 37.0698 74.8209C33.9795 77.9211 31.2919 80.7127 26.4826 79.035C26.2194 78.6872 32.5257 73.7011 33.0856 73.3829C33.2526 73.2886 33.5198 73.0685 33.7123 73.1785H33.7104Z" fill="white"/>
<path id="Vector_8" d="M53.1575 61.5862C50.2244 64.4132 47.0574 68.4681 42.5684 65.8002C45.9455 63.0341 48.1832 59.4821 53.1575 61.5862Z" fill="white"/>
<path id="Vector_9" d="M57.8642 71.5818C54.7444 73.5562 52.0569 79.3223 47.668 76.3891C49.5697 74.8509 51.9429 71.1653 54.4478 70.8175C55.491 70.6722 57.1177 70.7724 57.8622 71.5818H57.8642Z" fill="white"/>
<path id="Vector_10" d="M65.7099 64.3317C62.71 66.9682 60.2032 71.7147 55.5098 69.4259C57.496 67.6833 59.4154 64.1451 62.268 63.9309C63.4447 63.8425 64.5665 64.1687 65.7099 64.3317Z" fill="white"/>
<path id="Vector_11" d="M34.916 72.1725C37.7902 69.5537 40.686 65.766 44.9158 68.5478C41.9728 71.7226 39.58 74.4121 34.916 72.1725Z" fill="white"/>
<path id="Vector_12" d="M51.7845 69.6265C51.9103 70.0842 51.6647 69.9565 51.5331 70.0725C48.6942 72.595 46.101 76.9348 41.7808 74.5242C41.6885 74.1509 41.9183 74.147 42.1089 73.9741C45.0833 71.2571 47.1088 67.9173 51.7845 69.6265Z" fill="white"/>
<path id="Vector_13" d="M72.185 58.8428L68.7489 62.1689C66.5584 63.88 65.026 63.4026 62.5762 62.5637C63.6999 61.3044 65.0044 59.0334 66.6429 58.4931C68.4326 57.9018 70.4188 58.3654 72.1869 58.8428H72.185Z" fill="white"/>
<path id="Vector_14" d="M59.4338 62.9597L56.7954 65.9085C54.6068 67.9969 52.6128 68.8338 49.6266 67.6609C49.5519 67.3348 49.7327 67.2641 49.9233 67.0774C51.1374 65.8967 53.3967 63.5844 54.8524 62.9852C56.4339 62.3349 57.8347 62.4508 59.4319 62.9597H59.4338Z" fill="white"/>
<path id="Vector_15" d="M33.9356 80.2124C34.3521 79.6859 35.0514 79.4561 35.5976 79.0337C38.4011 76.8668 39.7311 74.5623 43.7389 77.1752L40.0729 80.7625C37.9846 81.0592 35.9925 80.3677 33.9336 80.2124H33.9356Z" fill="white"/>
<path id="Vector_16" d="M64.7304 57.8602C64.8188 58.2001 64.5889 58.2531 64.4376 58.4496C64.0211 58.9918 61.9485 61.0467 61.3984 61.2943C59.8955 61.9662 58.7325 61.3729 57.2767 60.9976C57.1903 60.6578 57.4201 60.6067 57.5694 60.4102C58.0272 59.813 59.9485 57.9289 60.6047 57.758C61.9544 57.4064 63.3787 57.8405 64.7284 57.8621L64.7304 57.8602Z" fill="white"/>
<path id="Vector_17" d="M58.4527 57.2718C58.545 57.649 58.3151 57.649 58.1226 57.8238C57.5097 58.3798 55.6708 60.0497 54.9694 60.1774L50.4096 59.4269C50.2839 58.9672 50.5314 59.0949 50.6611 58.979C51.6159 58.1264 52.6768 57.3897 53.6414 56.5508C55.1659 57.15 56.8319 57.15 58.4507 57.2718H58.4527Z" fill="white"/>
<path id="Vector_18" d="M49.2354 78.6468C48.1431 81.3265 45.0704 82.6566 42.373 81.2931C43.7365 80.134 44.9585 77.9612 46.9682 78.0516C47.7639 78.0869 48.4515 78.5702 49.2334 78.6468H49.2354Z" fill="white"/>
<path id="Vector_19" d="M82.9732 64.5282L69.2368 80.5121C69.0345 80.6535 68.8321 80.6025 68.6101 80.573C66.7025 80.3313 63.8637 78.5259 61.7891 78.2508C65.1151 74.5495 68.174 70.5811 71.4961 66.8759C72.0757 66.2295 74.6375 63.2826 75.1306 63.0587C76.8948 62.2591 81.0008 64.5066 82.9732 64.5282Z" fill="white"/>
</g>
</g>
</svg>
