<svg width="100" height="100" viewBox="0 0 100 100" fill="none" xmlns="http://www.w3.org/2000/svg">
<path d="M35.9797 7.88261C37.6174 3.80023 41.0047 5.98003 42.2248 9.05101L50.6221 11.1448C50.8565 8.55609 52.7984 7.73227 54.6986 9.60643C55.4987 10.3957 55.6788 11.7492 56.6109 12.1947C57.1622 12.4578 60.8137 13.4919 61.0953 13.3559C60.5941 11.1301 62.0784 9.86141 63.8642 11.5725C64.5543 12.235 64.9835 13.6866 65.4973 14.1227C66.3645 14.859 67.9232 14.6024 68.5247 15.2566L66.6166 58.4566C67.192 58.6778 67.0408 58.508 67.2641 58.2302C68.8672 56.2471 70.2464 53.5297 71.7658 51.4247C74.9804 46.9718 82.9329 36.6764 87.1198 33.6884C88.4874 32.7117 87.9723 33.9309 88.1741 33.8865C90.2525 30.5459 95.4838 30.4735 95.6063 34.9776C95.6678 37.2065 94.9893 36.9089 94.1683 38.2624C91.2439 43.0773 87.8861 48.641 84.2917 52.9499C83.1693 54.2966 81.4447 55.5807 80.3557 56.909C77.7646 60.0728 75.2795 64.2245 72.7812 67.5937C71.4799 69.3463 66.152 75.385 65.8979 76.9472C65.5825 78.8989 65.8851 86.5376 65.1622 87.5683C63.7875 89.5256 57.917 87.6165 56.2116 88.2387C55.638 88.4488 53.2789 90.8755 52.4738 91.4818C50.7682 92.7667 45.5925 96.1006 43.6298 96.3151C43.4323 96.3358 43.0186 96.39 43.0423 96.1298L47.4461 87.0123L22.7226 84.6037C17.1014 83.5428 11.2243 83.509 5.71807 82.063C5.30078 81.7538 4.89072 81.4351 4.60462 80.992C2.40967 77.5739 5.12037 68.6881 5.86013 64.7557C8.7143 49.6067 11.6549 34.2855 14.3559 18.9772C14.9662 15.5227 15.102 11.8466 16.0234 8.40604C16.519 6.55589 17.3661 4.63449 19.5312 4.49028C21.0778 4.38689 23.6183 4.74866 25.0388 5.32561C25.5222 2.71765 28.5499 2.526 30.2561 4.15147C30.801 4.66978 30.8018 5.32729 31.191 5.80309C32.2595 7.1167 34.5014 7.23493 35.9809 7.89101L35.9797 7.88261ZM29.989 6.50494C29.925 4.43651 26.4261 2.28512 26.2549 5.2837C27.2526 6.24325 28.7142 6.23049 29.989 6.50494ZM40.4647 8.71661C40.2823 7.61088 39.5131 6.62548 38.3509 6.46463C35.8343 7.90202 38.8596 8.81188 40.4647 8.71661ZM54.5208 12.1401C54.6236 10.3344 52.1993 8.13945 52.0323 11.1006L54.5208 12.1401ZM63.6802 14.1105C64.2342 12.814 62.074 10.4743 61.8119 12.5505C61.6968 13.4511 62.8419 14.1597 63.6802 14.1105ZM30.5819 7.70587L21.6867 5.78169C19.3584 19.9917 17.3823 34.2588 15.3961 48.5513C13.9708 58.8018 13.1907 69.7502 10.9643 79.8496C10.8337 80.4363 10.4891 80.9125 10.3758 81.4943L48.4074 86.064L53.508 77.7929C48.9024 76.9475 44.2964 76.0747 39.6901 75.2182C34.9726 74.3438 29.9128 73.7415 25.1839 72.8105C24.1206 72.6025 22.3837 71.8632 21.8748 70.8415L54.1546 77.0563C55.7202 74.5698 57.4202 72.1519 59.1217 69.7561C61.4776 66.4342 63.9716 63.4706 65.8299 59.8164C66.0765 52.5114 66.286 45.1858 66.6626 37.8857C66.9916 31.5042 67.9157 24.6493 68.033 18.3513C68.0444 17.7452 68.1482 15.9342 67.5814 15.6955L65.3478 15.5324C64.8566 17.1379 64.2267 18.3141 62.4276 17.4105C61.8722 16.0366 64.0803 16.9259 63.9637 15.5241L55.8596 13.7466C55.9889 15.1534 54.4029 16.1169 53.3214 15.1827C52.3484 14.3396 55.2622 14.1295 54.8038 13.5563L42.0207 10.6524L41.1282 12.5245L38.9908 12.2538C38.9617 11.0129 40.2342 11.5351 40.8849 10.8347L40.5632 10.1423L31.7375 8.18189C31.2276 9.84393 30.4925 10.8369 28.738 9.81072C28.3133 8.23185 30.7107 9.60085 30.5819 7.70587ZM94.6413 36.4462C95.4262 34.3306 92.5627 31.135 90.6403 33.1189L94.6413 36.4462ZM76.1857 52.3448C74.2815 51.6701 73.9323 52.3472 72.8162 53.616C66.4908 60.7981 59.0943 71.052 53.5163 78.97C51.2587 82.1738 48.7878 85.4389 47.5871 89.2095L76.1857 52.3448ZM78.1184 53.5431L77.3001 53.146L76.5254 53.6761L47.8044 90.0681L47.7239 90.5905C48.1378 91.1827 48.4187 91.963 49.2494 91.9697L78.121 53.5436L78.1184 53.5431ZM49.8288 91.8016C62.4998 82.6398 70.1043 68.4531 79.9222 56.5696L80.0053 56.0477L79.1355 54.7954L49.8319 91.7995L49.8288 91.8016ZM64.2225 87.3696L64.7684 77.9789L57.7876 87.0197C59.8926 87.4944 62.0806 87.4036 64.2225 87.3696ZM46.2981 91.1609C44.767 92.0636 46.9412 93.1948 47.7311 93.8185L48.7172 93.3549C48.928 92.8648 46.8266 91.1197 46.2981 91.1609Z" fill="black"/>
<path d="M30.5819 7.70587C30.7107 9.60085 28.3107 8.23136 28.738 9.81072C30.4925 10.8369 31.2276 9.84393 31.7375 8.18189L40.5632 10.1423L40.8849 10.8347C40.2342 11.5351 38.9612 11.0155 38.9908 12.2538L41.1282 12.5245L42.0207 10.6524L54.8038 13.5563C55.2622 14.1295 52.3484 14.3396 53.3214 15.1827C54.3998 16.119 55.9889 15.1534 55.8596 13.7466L63.9637 15.5241C64.0803 16.9259 61.8722 16.0366 62.4276 17.4105C64.2267 18.3141 64.8566 17.1379 65.3478 15.5324L67.5814 15.6955C68.1482 15.9342 68.0444 17.7452 68.033 18.3513C67.9157 24.6493 66.9916 31.5042 66.6626 37.8857C66.286 45.1858 66.0792 52.5119 65.8299 59.8164C63.9716 63.4706 61.4776 66.4342 59.1217 69.7561C57.4202 72.1519 55.7223 74.5729 54.1546 77.0563L21.8748 70.8415C22.3837 71.8632 24.1206 72.6025 25.1839 72.8105C29.9133 73.7389 34.9731 74.3412 39.6901 75.2182C44.2969 76.072 48.9024 76.9475 53.508 77.7929L48.4074 86.064L10.3758 81.4943C10.4895 80.9099 10.8337 80.4363 10.9643 79.8496C13.1907 69.7502 13.9703 58.8044 15.3961 48.5513C17.3823 34.2588 19.3584 19.9917 21.6867 5.78169L30.5819 7.70587ZM63.5137 28.2248C63.2667 27.4971 61.861 27.1493 61.172 26.967C51.8941 24.5028 40.9965 23.4485 31.4204 21.4745C29.287 21.0355 26.9016 20.0724 24.6308 19.9188C23.9331 19.8713 23.2818 20.0451 23.6959 20.842C24.2982 20.9918 24.8328 21.3009 25.4404 21.4517C34.2524 23.6632 43.9274 24.4118 52.8201 26.5264L63.5142 28.2221L63.5137 28.2248ZM25.8575 28.5607L23.3318 27.7216C22.8268 26.4142 22.4959 24.9618 21.7634 23.7487C21.6127 23.5025 20.7737 21.9805 20.4333 22.8312C20.007 23.895 22.2076 27.5623 22.2801 28.6722C22.3636 29.9287 21.4861 30.6307 22.7143 31.8185C23.9425 33.0062 25.9252 33.1991 26.488 31.266C26.6932 30.5566 26.4003 29.8996 26.6936 29.2884C26.9869 28.6773 28.923 27.0613 29.033 26.3207C28.8287 25.7892 28.4797 25.8473 28.0735 26.0965C27.3356 26.5462 26.4634 27.882 25.8606 28.5585L25.8575 28.5607ZM62.6438 37.3181L26.9653 30.1625C27.2982 31.1625 28.256 31.6755 29.2061 31.9498C36.9166 34.159 47.759 35.3639 55.8321 36.5875C57.819 36.8903 60.2448 37.6645 62.1589 37.771C62.5506 37.7918 63.0109 37.7217 62.6438 37.3181ZM22.412 36.7021C22.1157 36.7262 20.8353 37.6154 20.6909 37.8941C19.2667 40.6332 23.944 42.9757 24.8244 40.2122C25.3307 38.6286 24.0796 36.5638 22.4125 36.6994L22.412 36.7021ZM60.9381 46.5212C60.9285 46.0284 60.5121 45.9349 60.1271 45.8199C59.0986 45.512 57.5592 45.1203 56.4947 44.8739C46.2613 42.5026 35.5153 41.6019 25.3563 38.8434C25.6158 39.6361 26.2371 40.3459 27.0792 40.5265L60.9407 46.5217L60.9381 46.5212ZM26.6983 44.8036C26.0521 43.8601 23.5793 47.4304 23.2092 47.5582C23.116 47.59 21.4565 47.1106 21.2985 47.0213C20.6394 46.6482 20.0046 42.4501 18.8656 41.5762C17.2942 40.3712 18.6602 44.2002 18.7974 44.6075C19.6055 47.0021 19.9644 46.4495 19.6609 49.058C19.4311 51.0338 22.4345 53.0034 23.8243 51.1417C24.8872 49.7185 23.8792 49.1825 24.1771 48.3404C24.3733 47.7821 27.0845 45.3689 26.6956 44.8031L26.6983 44.8036ZM60.1858 56.4519L24.7439 49.4765C24.5532 49.8284 25.5332 50.5747 25.6922 50.6587C26.0961 50.8781 26.3055 50.9551 26.7486 51.0809C34.6148 53.3326 45.4564 54.4828 53.6356 55.767C55.5335 56.0642 57.871 56.8002 59.6987 56.9017C60.0904 56.9224 60.5507 56.8523 60.1836 56.4487L60.1858 56.4519ZM19.5625 58.4335C19.3954 58.2607 18.4995 54.7943 17.9292 53.9276C17.6502 53.505 17.4977 53.0621 16.8757 53.0477C16.3024 53.3452 16.5 53.2945 16.5616 53.7123C16.7803 55.1521 18.4618 58.044 18.4793 59.0237C18.4905 59.6259 17.9971 60.1099 18.1108 61.1593C18.2652 62.5926 21.0711 63.98 22.1458 62.39C22.8337 61.3719 22.3192 60.7337 22.5709 60.0085C22.8892 59.0856 25.2205 57.6329 25.1294 56.2113C24.7263 55.5311 21.9848 58.697 21.8435 59.1209C21.3867 58.3625 19.6473 58.5201 19.5625 58.4335ZM58.569 68.118C58.078 67.0587 56.1971 67.2147 55.1174 66.9328C49.1289 65.3809 42.8633 64.206 36.7089 63.5345L22.9878 60.4376C22.7755 61.2002 24.1971 61.9628 24.7074 62.1228C36.0032 64.031 47.2336 66.6444 58.569 68.118ZM17.3826 72.0928C19.6076 75.3636 23.2663 71.4731 20.6863 69.2493C18.5249 67.3867 16.0026 70.0613 17.3826 72.0928Z" fill="white"/>
<path d="M49.8288 91.8016L79.1323 54.7975L80.0021 56.0498L79.919 56.5717C70.1016 68.4526 62.4966 82.6419 49.8255 91.8037L49.8288 91.8016Z" fill="white"/>
<path d="M78.1184 53.5431L49.2467 91.9692C48.4161 91.9625 48.1352 91.1822 47.7213 90.59L47.8017 90.0676L76.5228 53.6756L77.2974 53.1455L78.1157 53.5427L78.1184 53.5431Z" fill="white"/>
<path d="M76.1857 52.3448L47.5871 89.2095C48.7873 85.4416 51.2582 82.1764 53.5163 78.97C59.0943 71.052 66.4908 60.7981 72.8162 53.616C73.9349 52.3477 74.282 51.6674 76.1857 52.3448Z" fill="white"/>
<path d="M64.2225 87.3696C62.0806 87.4036 59.8926 87.4944 57.7876 87.0197L64.7684 77.9789L64.2225 87.3696Z" fill="white"/>
<path d="M90.6403 33.1189L94.6413 36.4462C95.4262 34.3306 92.5632 31.1324 90.6403 33.1189Z" fill="white"/>
<path d="M29.989 6.50494C28.7142 6.23049 27.2553 6.24374 26.2549 5.2837C26.4235 2.28463 29.9224 4.43602 29.989 6.50494Z" fill="white"/>
<path d="M40.4647 8.71661C38.8623 8.81237 35.8343 7.90202 38.3509 6.46463C39.5131 6.62548 40.2823 7.61088 40.4647 8.71661Z" fill="white"/>
<path d="M46.2981 91.1609C46.8266 91.1197 48.9285 92.8622 48.7172 93.3549L47.7311 93.8185C46.9412 93.1948 44.767 92.0636 46.2981 91.1609Z" fill="white"/>
<path d="M52.0323 11.1006L54.5208 12.1401C54.6263 10.3349 52.1998 8.13682 52.0323 11.1006Z" fill="white"/>
<path d="M63.6802 14.1105C62.8393 14.1592 61.6968 13.4511 61.8119 12.5505C62.074 10.4743 64.2373 12.8118 63.6802 14.1105Z" fill="white"/>
<path d="M63.5137 28.2248L52.8194 26.529C43.9268 24.4144 34.2518 23.6658 25.4398 21.4543C24.8327 21.3009 24.3003 20.9949 23.6953 20.8446C23.2816 20.0451 23.9325 19.8739 24.6302 19.9214C26.901 20.075 29.2864 21.0381 31.4198 21.4771C40.9954 23.4538 51.8903 24.5075 61.1714 26.9696C61.8604 27.1519 63.2661 27.4997 63.5131 28.2274L63.5137 28.2248Z" fill="black"/>
<path d="M60.9381 46.5212L27.0765 40.5261C26.2345 40.3454 25.6132 39.6357 25.3537 38.843C35.5127 41.6014 46.2592 42.4995 56.4921 44.8735C57.5566 45.1198 59.096 45.5115 60.1245 45.8195C60.5095 45.9345 60.9259 46.028 60.9355 46.5207L60.9381 46.5212Z" fill="black"/>
<path d="M62.6438 37.3181C63.0109 37.7217 62.5501 37.7945 62.1589 37.771C60.2422 37.664 57.8195 36.8876 55.8321 36.5875C47.7595 35.3613 36.9166 34.159 29.2061 31.9498C28.2555 31.6781 27.2977 31.1651 26.9653 30.1625L62.6438 37.3181Z" fill="black"/>
<path d="M60.1858 56.4519C60.5523 56.858 60.0918 56.9281 59.7006 56.9047C57.8733 56.8006 55.5354 56.0672 53.6375 55.77C45.4583 54.4859 34.6172 53.333 26.7504 51.0839C26.3073 50.9581 26.0984 50.8785 25.694 50.6617C25.5355 50.5751 24.5551 49.8315 24.7458 49.4795L60.1876 56.4549L60.1858 56.4519Z" fill="black"/>
<path d="M58.569 68.118C47.231 66.6439 36.0032 64.031 24.7074 62.1228C24.1971 61.9628 22.7755 61.2002 22.9878 60.4376L36.7089 63.5345C42.8633 64.206 49.1294 65.3783 55.1174 66.9328C56.1976 67.2121 58.0785 67.0561 58.569 68.118Z" fill="black"/>
<path d="M19.5625 58.4335C19.6473 58.5201 21.3867 58.3625 21.8435 59.1209C21.9853 58.6944 24.7263 55.5311 25.1294 56.2113C25.2184 57.6298 22.8892 59.0856 22.5709 60.0085C22.3187 60.7364 22.8332 61.3745 22.1458 62.39C21.0742 63.9779 18.2657 62.59 18.1108 61.1593C17.9997 60.1104 18.4905 59.6259 18.4793 59.0237C18.4618 58.044 16.7803 55.1521 16.5616 53.7123C16.4973 53.294 16.2998 53.3447 16.8757 53.0477C17.4977 53.0621 17.6502 53.505 17.9292 53.9276C18.4995 54.7943 19.3949 58.2633 19.5625 58.4335Z" fill="black"/>
<path d="M25.8575 28.5607C26.4581 27.881 27.3322 26.5483 28.0702 26.0987C28.4764 25.8494 28.8254 25.7914 29.0296 26.3229C28.9227 27.0613 26.9877 28.672 26.6903 29.2906C26.3929 29.9092 26.6893 30.5614 26.4847 31.2681C25.9244 33.2018 23.9856 33.0524 22.711 31.8206C21.4364 30.5888 22.3598 29.9335 22.2768 28.6744C22.2043 27.5645 20.0037 23.8972 20.43 22.8333C20.7704 21.9827 21.6119 23.5052 21.7601 23.7508C22.4926 24.964 22.8239 26.4137 23.3285 27.7237L25.8542 28.5628L25.8575 28.5607Z" fill="black"/>
<path d="M26.6983 44.8036C27.0845 45.3689 24.3755 47.7854 24.1798 48.341C23.8819 49.1831 24.89 49.7191 23.827 51.1422C22.4373 53.004 19.4312 51.0339 19.6636 49.0586C19.9676 46.4474 19.6083 47.0027 18.8002 44.6081C18.6629 44.2008 17.2969 40.3718 18.8683 41.5768C20.0079 42.4481 20.6426 46.6462 21.3013 47.0219C21.4593 47.1112 23.1188 47.5906 23.212 47.5588C23.582 47.431 26.0549 43.8607 26.701 44.8042L26.6983 44.8036ZM23.3553 49.6256C22.6415 49.3269 22.4318 50.3845 21.9476 50.4366C21.3494 50.5003 21.0938 49.8337 20.8066 49.4259C20.5111 51.5205 22.8778 51.981 23.3553 49.6256Z" fill="black"/>
<path d="M17.3826 72.0928C16.0021 70.064 18.5275 67.3872 20.6863 69.2493C23.2636 71.4726 19.6049 75.3632 17.3826 72.0928ZM18.7797 69.4988C17.0596 69.6846 18.0636 72.9501 19.6671 72.4808C20.9851 72.095 20.6862 69.293 18.7797 69.4988Z" fill="black"/>
<path d="M22.412 36.7021C24.0796 36.5638 25.3308 38.6287 24.824 40.2149C23.941 42.9779 19.2663 40.6359 20.6905 37.8968C20.8349 37.6181 22.1152 36.7289 22.4116 36.7047L22.412 36.7021ZM23.7539 38.3364C23.4359 37.8738 21.8228 37.3648 21.4581 38.0227C20.9541 39.094 21.7845 41.1326 23.103 40.7442C23.8877 40.5132 24.1491 38.9115 23.7565 38.3369L23.7539 38.3364Z" fill="black"/>
<path d="M23.3553 49.6256C22.8778 51.981 20.5111 51.5205 20.8066 49.4259C21.0938 49.8337 21.3494 50.5003 21.9476 50.4366C22.4318 50.3845 22.6415 49.3269 23.3553 49.6256Z" fill="white"/>
<path d="M18.7797 69.4988C20.6862 69.293 20.9856 72.0924 19.6671 72.4808C18.0636 72.9501 17.0596 69.6846 18.7797 69.4988Z" fill="white"/>
<path d="M23.7539 38.3364C24.1491 38.9115 23.8849 40.5127 23.1002 40.7437C21.7817 41.1321 20.9539 39.0939 21.4553 38.0222C21.8195 37.3669 23.4326 37.8759 23.751 38.3359L23.7539 38.3364Z" fill="white"/>
</svg>
