<svg width="160" height="161" viewBox="0 0 160 161" fill="none" xmlns="http://www.w3.org/2000/svg">
<g id="image">
<g id="Group">
<path id="Vector" d="M133.407 35.887C130.906 38.7941 128.045 41.4496 126.294 44.9403C141.903 62.3991 140.843 88.0519 130.085 107.759C114.467 136.362 78.7468 149.752 48.6423 135.409C25.23 124.254 15.6306 102.395 19.2069 77.0311C19.6861 73.6261 20.6471 70.1166 21.6991 66.9686C33.8282 30.6911 80.8321 15.77 113.287 34.4361C114.077 34.8912 117.632 37.4503 118.111 37.3057C121.907 32.8835 124.576 27.4172 128.564 23.1583C131.72 19.788 134.633 18.1069 139.039 20.7062C139.877 21.2014 142.385 23.1315 142.331 24.0711C142.195 26.4294 135.23 33.7669 133.409 35.8843L133.407 35.887ZM49.8924 63.2397C58.5254 61.1945 62.9156 67.686 65.9672 74.5416C69.3776 82.2002 70.8847 91.0367 76.2064 97.6915C83.4662 86.0014 91.0097 74.4773 98.829 63.1513C101.696 58.9994 104.903 53.6991 108.019 49.9006C109.223 48.4337 113.544 44.7422 113.697 43.0156C113.763 42.25 108.543 38.7887 107.601 38.2507C83.1075 24.2665 52.4595 38.1516 37.3858 59.409C19.6593 84.4087 20.5722 115.065 49.6193 130.425C88.8789 151.187 141.909 103.875 127.103 61.762C126.642 60.4503 122.972 52.2375 122.129 52.0341C121.805 51.9565 121.35 52.3473 121.109 52.5748C118.611 54.9332 115.677 60.6591 113.311 63.7429C109.662 68.4998 105.275 72.7079 101.768 77.5772C98.9146 81.5363 96.302 86.4217 93.7562 90.67C89.9711 96.9928 84.0712 111.009 75.6255 111.298C74.3299 111.344 70.9945 110.562 69.9424 109.834C69.1768 109.304 66.6338 103.048 66.0609 101.693C60.6241 88.8925 56.3678 75.5802 49.8897 63.237L49.8924 63.2397Z" fill="#1C1C1F"/>
<path id="Vector_2" d="M49.8928 63.2394C56.3682 75.5827 60.6272 88.8949 66.064 101.696C66.6395 103.048 69.1799 109.304 69.9455 109.836C70.9948 110.565 74.333 111.346 75.6286 111.301C84.0742 111.012 89.9741 96.9953 93.7593 90.6724C96.3024 86.4242 98.9177 81.5388 101.771 77.5796C105.281 72.7103 109.666 68.4996 113.314 63.7454C115.681 60.6616 118.617 54.9383 121.112 52.5773C121.353 52.3498 121.805 51.9589 122.132 52.0366C122.975 52.24 126.645 60.4528 127.106 61.7644C141.912 103.88 88.882 151.189 49.6224 130.427C20.5725 115.064 19.6597 84.4084 37.3862 59.4114C52.4599 38.1541 83.1105 24.269 107.602 38.2531C108.544 38.7912 113.764 42.2524 113.697 43.018C113.544 44.742 109.224 48.4361 108.019 49.9031C104.903 53.6989 101.696 59.0019 98.8294 63.1538C91.0101 74.4771 83.4666 86.0012 76.2068 97.6939C70.8851 91.0391 69.378 82.2053 65.9676 74.544C62.9159 67.6885 58.5231 61.1943 49.8928 63.2421V63.2394Z" fill="#6FE69E"/>
</g>
</g>
</svg>
