<svg width="160" height="161" viewBox="0 0 160 161" fill="none" xmlns="http://www.w3.org/2000/svg">
<g id="image">
<g id="DgrGIi.tif">
<g id="Group">
<path id="Vector" d="M97.3554 50.6388L96.5154 78.3716C98.268 79.3045 100.216 78.528 101.941 78.4972C110.756 78.3297 119.106 77.8129 127.866 77.3968C135.172 77.0504 142.322 75.6371 146.508 82.9913C150.035 89.1865 151.241 104.755 151.417 112.082C151.674 122.695 149.419 128.899 138.529 131.541C133.671 132.72 131.477 131.147 127.322 131.172C124.386 131.192 120.599 132.044 117.554 132.295C103.141 133.488 89.1535 135.365 74.6363 135.091C66.1024 134.929 57.6047 134.432 49.0066 134.516C43.2242 134.572 36.4763 136.144 32.1703 131.036C27.1359 125.064 26.0949 108.518 25.4782 100.661C25.3554 99.0824 25.4419 92.0997 24.7805 91.3232C23.8847 90.2702 14.2205 91.9879 12.2838 90.7925C10.3303 86.8263 11.6084 82.011 11.5554 77.7934C11.5024 73.5758 10.6261 68.956 10.4196 64.7189C9.98146 55.7251 10.2884 46.3347 9.30332 37.4079C9.24471 36.8688 8.58053 36.2683 8.87634 35.8493L10.0791 35.3717C33.3033 35.0421 56.7256 34.4081 79.9442 34.4444C80.9042 34.4444 81.7219 34.8243 82.721 34.7572C85.2549 34.5841 85.2215 32.2993 86.6252 30.5648C94.4475 20.9202 111.94 28.0733 109.71 40.8378C108.627 47.0357 103.252 50.1836 97.3582 50.6388H97.3554ZM97.0735 45.8961C98.0559 42.874 97.5591 39.4608 97.6233 36.2711C97.6429 35.2293 98.6698 30.6067 96.9508 30.5676C96.2335 30.5508 92.4801 34.2685 91.9191 35.0226C91.5061 35.5784 90.9201 36.2711 91.3666 36.9778L96.2419 33.6344C96.2056 36.2152 94.6345 43.5332 96.2419 45.4828C96.4847 45.776 96.6577 45.9827 97.0791 45.8961H97.0735ZM17.1145 38.0978C17.1536 38.3911 17.4689 38.6006 17.6922 38.7737C28.188 46.8123 41.9154 52.7811 52.8047 60.5041C55.6289 61.7973 57.1721 60.4789 59.4382 59.1159C67.7405 54.119 75.5266 47.8178 83.9656 42.9606C85.1377 42.0528 84.3089 40.2038 84.1275 38.9246C83.508 38.0475 77.4103 38.4386 76.0261 38.3883C75.2866 38.3631 74.6168 38.1062 73.8214 38.0838C54.9452 37.6006 35.9935 38.4693 17.1117 38.1006L17.1145 38.0978ZM24.9173 89.6557C25.068 88.801 24.6103 87.9882 24.747 87.1419C24.8391 86.5777 26.4773 82.9522 26.8596 82.5417C28.7991 80.4692 39.4987 79.8463 42.6103 79.6257C48.5461 79.2039 54.5266 79.3575 60.4261 78.7738L92.6335 78.3855L93.9535 50.5522C93.6968 49.692 91.107 49.111 90.1331 48.5217C88.9387 47.801 87.1638 45.5051 86.4773 45.1923C86.1759 45.0554 85.9498 45.0135 85.6456 45.1727C76.6512 51.1919 68.1033 57.8953 58.9108 63.6016L55.1405 65.2915C40.4977 57.3171 26.9349 47.5636 12.5182 39.2039L15.4401 89.6529H24.9117L24.9173 89.6557ZM28.347 85.5582C27.3619 86.6168 28.428 90.178 28.5368 91.7477C29.2624 102.32 29.1089 114.785 32.508 124.843C33.0354 126.407 34.5201 130.22 36.108 130.717C36.9145 130.968 39.3731 131.139 40.3694 131.192C60.5768 132.256 82.3108 131.2 102.51 130.343C110.391 130.15 119.642 127.642 127.322 127.547C130.45 127.508 133.355 128.966 136.774 128.667C140.156 128.371 147.892 125.48 149.042 121.986C149.982 119.126 149.67 111.942 149.452 108.747C149.047 102.825 147.56 87.0665 143.304 83.1226C140.382 80.4133 134.703 80.5809 130.914 80.7233C124.534 80.9608 118.099 81.9216 111.714 82.1395C86.0949 83.0109 60.334 80.958 34.8103 83.8041C33.4429 83.9578 29.1898 84.6477 28.347 85.5554V85.5582Z" fill="#1C1C1F"/>
<path id="Vector_2" d="M28.3461 85.5589C29.1917 84.6511 33.4419 83.9584 34.8093 83.8076C60.333 80.9614 86.094 83.0115 111.713 82.1429C118.1 81.925 124.536 80.9642 130.913 80.7268C134.7 80.5843 140.379 80.4195 143.303 83.1261C147.556 87.0699 149.047 102.829 149.451 108.75C149.669 111.945 149.981 119.132 149.041 121.989C147.891 125.481 140.155 128.374 136.773 128.67C133.352 128.969 130.447 127.511 127.321 127.55C119.641 127.648 110.39 130.154 102.509 130.346C82.3098 131.204 60.5758 132.26 40.3684 131.195C39.3749 131.142 36.9135 130.972 36.107 130.721C34.5191 130.223 33.0344 126.411 32.507 124.847C29.1079 114.789 29.2642 102.32 28.5358 91.7512C28.427 90.1842 27.361 86.6202 28.3461 85.5616V85.5589ZM42.9582 90.2848C39.0372 90.8183 35.6828 93.7622 34.5889 97.5189C30.9275 110.107 50.387 117.543 55.8903 106.286C59.9144 98.0608 51.0037 89.1899 42.9582 90.2848ZM131.066 102.474C130.971 101.382 132.076 100.742 132.514 99.8847C133.829 97.3178 133.862 92.9718 130.639 91.8908C129.249 91.9299 127.731 95.8347 127.712 97.0553C127.695 98.0496 128.529 99.7227 127.525 100.541C126.107 101.695 122.069 102.488 120.199 102.474C122.599 100.373 122.18 96.7508 120.314 94.4186C117.205 90.5362 114.573 95.0945 114.905 98.4379C115.011 99.5076 115.731 100.474 115.435 101.614C110.273 103.074 104.633 105.211 99.2884 103.407L99.1572 102.75C101.527 100.53 104.73 97.8904 100.954 95.1113C99.4865 94.0303 98.1303 93.455 96.947 95.2453C95.7637 97.0357 96.2605 99.5607 95.6968 101.521C92.1526 103.806 87.8549 106.747 83.4205 105.541C83.0465 105.007 85.4577 103.636 85.8847 103.133C89.6968 98.6194 82.0531 92.0193 80.267 97.7926C79.6251 99.8707 79.8819 101.742 80.0437 103.843C76.3796 104.979 72.4586 106.859 68.6549 105.261C69.707 103.063 72.0205 101.097 71.7275 98.4323C71.6242 97.4938 71.281 97.0944 70.6084 96.4827C67.5944 93.7315 64.9014 97.1921 65.0158 100.393C65.0577 101.6 66.1293 103.764 66.0875 104.248C65.987 105.418 62.6214 106.747 63.361 107.496C66.1405 107.655 66.2661 105.281 69.2717 106.183C72.6623 107.2 72.7461 107.893 76.7479 107.096C78.0875 106.831 80.8642 105.521 81.8996 105.574C82.4158 105.602 83.4958 106.61 84.1489 106.907C89.881 109.496 93.2214 105.463 98.3284 103.706C102.408 106.968 106.885 106.356 111.618 105.189C112.938 104.862 115.645 103.658 116.736 103.611C119.418 103.491 120.849 105.65 125.158 104.521C126.294 104.222 128.647 102.876 129.576 102.829C130.045 102.806 132.685 104.795 134.546 104.985C135.71 105.105 139.968 105.309 138.994 103.323C138.02 101.337 135.908 102.675 134.278 102.767C133.198 102.829 132.104 102.806 131.063 102.477L131.066 102.474Z" fill="white"/>
<path id="Vector_3" d="M24.9169 89.6561H15.4453L12.5234 39.207C26.9374 47.5668 40.503 57.3203 55.1458 65.2946L58.916 63.6048C68.1086 57.8985 76.6564 51.195 85.6509 45.1759C85.9551 45.0139 86.1811 45.0558 86.4825 45.1954C87.169 45.5083 88.9439 47.8042 90.1383 48.5248C91.1151 49.1142 93.702 49.6951 93.9588 50.5554L92.6388 78.3887L60.4313 78.7769C54.5318 79.3579 48.5513 79.2043 42.6155 79.6288C39.5039 79.8495 28.8044 80.4723 26.8648 82.5448C26.4825 82.9554 24.8416 86.5809 24.7523 87.1451C24.6155 87.9914 25.0732 88.8042 24.9225 89.6589L24.9169 89.6561Z" fill="#F1D071"/>
<path id="Vector_4" d="M17.1152 38.0965C35.9971 38.468 54.9487 37.5965 73.825 38.0797C74.6176 38.0993 75.2901 38.3562 76.0297 38.3842C77.4138 38.4345 83.5087 38.0462 84.1311 38.9205C84.3124 40.1997 85.1413 42.0487 83.9692 42.9565C75.5301 47.8137 67.7469 54.1149 59.4417 59.1118C57.1757 60.4748 55.6297 61.7932 52.8083 60.5C41.919 52.777 28.1887 46.811 17.6957 38.7696C17.4724 38.5992 17.1571 38.387 17.118 38.0937L17.1152 38.0965Z" fill="#F1D071"/>
<path id="Vector_5" d="M97.0739 45.895C96.6525 45.9816 96.4795 45.7749 96.2367 45.4816C94.6292 43.532 96.2004 36.2141 96.2367 33.6333L91.3613 36.9766C90.9148 36.2728 91.5009 35.5773 91.9139 35.0215C92.4748 34.2673 96.2283 30.5497 96.9455 30.5665C98.6646 30.6056 97.6404 35.2282 97.6181 36.27C97.5539 39.4625 98.0506 42.8729 97.0683 45.895H97.0739Z" fill="white"/>
<path id="Vector_6" d="M131.066 102.473C132.104 102.802 133.201 102.825 134.281 102.763C135.911 102.671 138.068 101.422 138.997 103.319C139.927 105.215 135.716 105.101 134.549 104.981C132.69 104.788 130.048 102.799 129.579 102.825C128.649 102.872 126.297 104.218 125.161 104.517C120.852 105.648 119.421 103.486 116.739 103.607C115.648 103.654 112.941 104.861 111.621 105.185C106.888 106.352 102.411 106.964 98.3313 103.702C93.2244 105.461 89.8839 109.494 84.1518 106.902C83.496 106.606 82.4188 105.598 81.9025 105.57C80.8672 105.517 78.0904 106.827 76.7509 107.092C72.749 107.888 72.6653 107.199 69.2746 106.179C66.269 105.277 66.1406 107.651 63.3639 107.492C62.6244 106.746 65.9899 105.414 66.0904 104.243C66.1323 103.76 65.0606 101.593 65.0188 100.389C64.9044 97.1908 67.6002 93.7302 70.6113 96.4786C71.2811 97.0903 71.6244 97.4925 71.7304 98.4282C72.0262 101.093 69.71 103.059 68.6579 105.257C72.4616 106.855 76.3853 104.975 80.0467 103.838C79.8848 101.735 79.6281 99.8666 80.2699 97.7885C82.056 92.0152 89.6997 98.6153 85.8876 103.129C85.4634 103.632 83.0495 105.006 83.4234 105.537C87.8579 106.743 92.1555 103.802 95.6997 101.517C96.2606 99.5566 95.7751 97.0232 96.95 95.2412C98.1248 93.4592 99.4895 94.0262 100.957 95.1072C104.733 97.8863 101.527 100.526 99.1602 102.746L99.2913 103.403C104.633 105.207 110.276 103.07 115.438 101.61C115.734 100.47 115.014 99.5035 114.908 98.4338C114.576 95.0904 117.208 90.5321 120.316 94.4145C122.183 96.7439 122.605 100.367 120.202 102.47C122.072 102.484 126.11 101.691 127.528 100.537C128.532 99.7186 127.698 98.0455 127.715 97.0512C127.737 95.8306 129.252 91.9258 130.642 91.8867C133.863 92.9676 133.832 97.3137 132.517 99.8806C132.079 100.738 130.971 101.375 131.069 102.47L131.066 102.473ZM116.859 100.523C119.429 100.372 120.607 97.1266 118.946 95.2356C117.487 96.5289 116.778 98.5734 116.859 100.523ZM69.4923 97.7383C67.6058 97.1992 66.6011 102.757 67.6839 102.749C69.0737 101.403 69.7267 99.6823 69.4923 97.7383ZM84.2551 97.7383C82.8765 97.5037 81.6737 101.822 82.0309 102.196C83.8672 102.816 85.0309 98.2997 84.2551 97.7383Z" fill="#1C1C1F"/>
<path id="Vector_7" d="M42.9594 90.2835C51.005 89.1886 59.9157 98.0595 55.8915 106.285C50.3855 117.541 30.9287 110.106 34.5901 97.5176C35.6841 93.7581 39.0385 90.8142 42.9594 90.2835ZM53.0534 105.26C54.1613 101.506 54.3845 97.4115 51.6552 94.2581C45.9399 87.6468 35.3045 94.7468 36.9175 102.447C38.5724 102.464 40.1073 101.685 41.7594 101.626C43.9892 101.545 46.7268 102.149 48.7864 102.981C50.2934 103.59 51.5771 104.615 53.0534 105.26Z" fill="#1C1C1F"/>
<path id="Vector_8" d="M116.859 100.524C116.781 98.5713 117.49 96.5267 118.947 95.2363C120.607 97.1301 119.43 100.373 116.859 100.524Z" fill="white"/>
<path id="Vector_9" d="M69.4932 97.7399C69.7248 99.6839 69.0746 101.404 67.6848 102.751C66.602 102.759 67.6095 97.2009 69.4932 97.7399Z" fill="white"/>
<path id="Vector_10" d="M84.2565 97.7397C85.0323 98.2983 83.8686 102.818 82.0323 102.197C81.6751 101.823 82.8779 97.5051 84.2565 97.7397Z" fill="white"/>
<path id="Vector_11" d="M53.0524 105.261C51.5789 104.616 50.2924 103.591 48.7854 102.982C46.7259 102.15 43.9882 101.546 41.7584 101.627C40.1091 101.689 38.5715 102.465 36.9166 102.448C35.3036 94.7479 45.9361 87.6478 51.6543 94.2591C54.3808 97.4125 54.1603 101.507 53.0524 105.261ZM42.844 99.3118C43.084 99.5632 43.7482 99.9961 44.0747 100.169C51.3054 104.029 52.5557 93.0133 45.657 92.7117C41.817 92.5441 40.2989 96.6472 42.844 99.3118Z" fill="white"/>
<path id="Vector_12" d="M42.8452 99.3121C40.3001 96.6475 41.8182 92.5444 45.6582 92.712C52.5569 93.0137 51.3066 104.03 44.0759 100.17C43.7494 99.9964 43.0824 99.5607 42.8452 99.3121Z" fill="#1C1C1F"/>
</g>
</g>
</g>
</svg>
