<svg width="66" height="8" viewBox="0 0 66 8" fill="none" xmlns="http://www.w3.org/2000/svg">
<path id="Vector" d="M0.984156 1.7967L25.0772 2.01287C31.4484 2.07028 37.8195 2.12769 44.1906 2.1842C43.1313 2.27748 42.0727 2.37077 41.0134 2.46316C33.7661 3.10002 26.5188 3.73778 19.2722 4.37464C15.2037 4.73254 11.1351 5.09043 7.06651 5.44743C6.63184 5.486 6.04063 5.7856 5.91752 6.33186C5.80353 6.83687 6.17057 7.21898 6.59232 7.24141C14.2188 7.64684 21.8514 7.88724 29.4855 7.96886C37.0276 8.05049 44.5713 7.97155 52.1119 7.73296C56.3477 7.5993 60.5827 7.41363 64.8154 7.17951C65.2729 7.1544 65.9355 6.78394 65.9956 6.17848C66.0594 5.54162 65.4211 5.36043 65.016 5.38285C57.4815 5.79995 49.9409 6.05918 42.3987 6.15785C35.2274 6.25113 28.1412 6.19911 21.0033 6.00267C23.5384 5.77932 26.0735 5.55687 28.6086 5.33352C35.8559 4.69666 43.1031 4.0589 50.3497 3.42204C54.4183 3.06414 58.4868 2.70624 62.5554 2.34924C63.0137 2.30888 63.674 1.96354 63.7356 1.34821C63.8009 0.691612 63.1588 0.556167 62.756 0.552579C54.7253 0.48082 46.6937 0.408164 38.663 0.336405C30.6748 0.264647 22.6858 0.192887 14.6976 0.121129C10.1936 0.0807642 5.68954 0.0403999 1.18477 3.55205e-05C0.729586 -0.00444941 0.0631389 0.416237 0.00462555 1.00107C-0.0607271 1.65767 0.581401 1.79311 0.984156 1.7967Z" fill="#4628FF"/>
</svg>
