<svg width="92" height="66" viewBox="0 0 92 66" fill="none" xmlns="http://www.w3.org/2000/svg">
<g id="Vector">
<path d="M0.594185 59.8753C5.37367 64.1135 13.1775 68.7924 17.844 61.7247C20.6439 57.484 20.0407 52.1467 24.2372 48.5575C28.9173 44.5434 35.8993 44.0112 41.1285 47.2608C42.542 48.1941 44.1483 46.6836 43.8281 45.1191C41.6163 33.7129 53.2016 26.0036 62.9995 31.8637C65.0567 33.1543 66.9526 29.873 64.8954 28.5824C52.0979 20.8094 37.4095 31.4766 40.2617 46.0119C41.1826 45.3344 42.1035 44.657 42.9613 43.8701C37.0253 40.1539 29.5721 40.375 23.7479 44.1749C21.0776 45.8624 18.8954 48.1428 17.6555 51.0454C16.8022 52.8501 16.782 55.3402 15.7563 57.0986C14.7305 58.8571 9.54091 60.9786 7.47133 60.4241C5.91915 60.0082 4.28242 58.1833 3.26002 57.1699C1.46771 55.5806 -1.19812 58.286 0.594185 59.8753Z" fill="#F6D5D6"/>
<path d="M40.1501 17.7939C43.1744 18.2345 45.1425 17.0982 47.2154 14.881C50.0367 11.94 51.0241 8.60007 56.1856 10.7225C57.9272 11.4664 59.2652 13.0264 61.2717 13.4716C65.0659 14.4883 68.7541 12.7962 71.8449 10.5744C75.4824 8.03697 84.9012 -0.899776 88.4577 6.52284C89.5478 8.6634 92.8279 6.7696 91.7378 4.62905C86.6956 -5.87196 74.9175 4.28112 69.2489 7.8455C65.0478 10.4168 62.0697 9.80366 58.0816 7.44111C56.3231 6.41539 54.6908 5.60834 52.6088 5.78987C47.9444 6.2961 45.1627 14.6082 41.0574 14.0627C38.7229 13.8069 37.6431 17.4918 40.1501 17.7939Z" fill="#F6D5D6"/>
</g>
</svg>
