<svg width="90" height="40" viewBox="0 0 90 40" fill="none" xmlns="http://www.w3.org/2000/svg">
<g id="Vector">
<path d="M88.0959 0.690037C85.3454 9.51906 77.4043 13.7702 68.4939 12.5325C63.9757 11.9103 60.3129 11.8398 57.077 15.5853C53.2963 20.0602 52.8314 26.3569 48.3077 30.539C42.9938 35.3107 35.2221 36.4101 28.3465 37.3048C27.1983 37.4959 27.6077 39.288 28.7559 39.0968C35.1205 38.3011 42.0028 37.2804 47.3819 33.6501C52.502 30.1323 54.0405 25.0311 56.7273 19.7389C60.2519 12.9744 64.9748 14.4927 71.4112 14.7123C73.9326 14.8479 76.3618 14.3463 78.6853 13.4598C84.2419 11.2298 88.1488 6.76176 89.9667 1.16991C90.2798 0.0488248 88.5419 -0.550337 88.0959 0.690037Z" fill="#9CB1F0"/>
<path d="M44.5951 5.43164C44.2494 11.8613 40.0091 17.8286 33.7232 19.5136C29.2293 20.7892 24.6595 18.7734 20.1657 20.049C12.9702 22.1909 8.96578 30.8261 1.00298 30.7773C-0.264508 30.8356 -0.36618 32.7266 0.901307 32.6684C4.82306 32.6263 7.81752 31.0172 10.8527 28.6517C13.2304 26.7565 15.3764 24.4696 18.1052 23.0991C22.4079 20.6753 26.1291 22.0133 30.5619 21.8723C39.4275 21.5904 46.1513 14.1129 46.6122 5.54008C46.5539 4.2726 44.6629 4.17093 44.5951 5.43164Z" fill="#9CB1F0"/>
</g>
</svg>
