<svg width="130" height="70" viewBox="0 0 130 70" fill="none" xmlns="http://www.w3.org/2000/svg">
<g id="Group 61">
<path id="Vector" d="M4.69381 47.2197C3.17878 45.1996 4.69381 41.6645 6.58761 40.5282C8.98641 39.0132 12.269 39.7707 14.794 40.402C17.4454 41.0333 19.8442 42.2958 22.3692 42.9271C25.6518 43.8108 29.3132 44.1896 32.5958 42.9271C36.1308 41.5383 37.8984 38.7607 38.6559 35.2257C39.4134 32.1956 39.1609 28.4079 41.686 26.0091C44.0848 23.6103 47.8723 23.3579 51.0287 23.3579C59.1088 23.4841 67.0628 28.0292 71.4817 18.6865C73.7542 13.6364 74.133 8.08122 79.6881 5.1774C86.3795 1.64232 94.4597 4.67242 101.025 6.94498C103.297 7.7025 104.307 4.16738 102.035 3.28361C92.0609 -0.251472 77.668 -3.53402 71.4817 8.20751C70.4716 10.2276 69.8403 12.5001 69.0828 14.5202C68.3253 16.4139 67.4416 19.6965 65.4215 20.5803C63.149 21.5903 58.9826 20.4541 56.5838 20.0753C51.9125 19.444 46.9886 18.939 42.4435 20.959C37.8984 23.1053 36.3833 26.7667 35.4996 31.5643C33.227 44.3158 23.1267 38.3819 14.794 36.3619C10.2489 35.2256 5.32508 35.6044 2.16875 39.392C-0.230053 42.2958 -0.861287 45.9571 1.41127 48.9872C2.80005 51.1335 6.08259 49.2397 4.69381 47.2197Z" fill="#9CB1F0"/>
<g id="Group">
<g id="Group_2">
<path id="Vector_2" d="M33.9865 67.6724C35.249 60.3497 40.9304 56.3097 48.2531 56.6885C52.2932 56.8147 56.712 58.2034 60.7521 56.9409C63.5297 56.0571 65.676 54.1634 66.8123 51.5121C69.4636 45.7044 69.4636 40.7806 75.145 36.488C79.9426 32.8267 85.624 31.6904 91.4316 33.0792C95.0929 33.9629 99.0068 35.6042 102.794 34.2154C106.834 32.7004 108.728 28.029 112.39 25.6302C117.061 22.6001 122.742 21.5902 128.045 20.7064C130.444 20.3276 129.434 16.6663 127.035 17.045C122.111 17.9288 117.187 18.9388 112.768 21.0851C110.748 22.0951 108.981 23.2314 107.34 24.7464C104.057 27.7765 102.668 30.8066 97.2393 30.5541C92.5679 30.4278 88.9066 28.1553 83.9827 28.7865C79.5639 29.4178 75.3975 31.3116 71.9887 34.0892C68.8324 36.7405 66.3073 40.1493 65.0448 44.1894C63.656 48.3557 62.7722 53.4059 57.0908 53.5322C54.4395 53.6584 51.7882 53.0271 49.1369 52.9009C39.9204 52.1434 31.9665 57.1935 30.3252 66.5362C29.9464 69.0612 33.4815 70.0712 33.9865 67.6724Z" fill="#9CB1F0"/>
</g>
</g>
</g>
</svg>
