<svg width="136" height="123" viewBox="0 0 136 123" fill="none" xmlns="http://www.w3.org/2000/svg">
<g id="Group 62">
<path id="Vector" d="M59.6261 42.7186C49.4875 46.0021 44.8739 54.5618 42.9673 58.087C42.506 58.943 36.9851 69.4867 39.5356 82.3477C40.2871 86.1646 41.1234 90.1157 44.4606 92.672C46.3843 94.1804 48.3358 94.5432 56.0782 95.5961C59.6855 96.1016 63.6014 96.5997 67.7894 97.0823C71.5051 94.0414 78.1332 87.7786 81.9313 77.7298C82.6231 75.8507 90.8191 53.4311 79.6423 44.463C72.3411 38.5564 61.1216 42.2108 59.6261 42.7186Z" fill="#F4CB55"/>
<g id="lightbulb">
<g id="Group">
<g id="Group_2">
<path id="Vector_2" d="M42.7025 90.9322C38.522 88.0324 36.7514 82.9493 36.0761 78.113C35.3325 73.0692 35.7017 67.8538 37.0767 62.9418C39.5808 53.8686 45.5782 45.4672 54.1243 41.249C62.2029 37.2327 72.6703 37.9395 79.1286 44.6929C85.8661 51.7395 84.8453 62.913 82.9511 71.6628C80.8346 81.3992 76.2744 91.0843 67.5097 96.4435C66.8915 96.8034 67.4771 97.78 68.1035 97.3835C76.4291 92.271 81.1614 83.3542 83.5078 74.1303C85.8129 65.0891 87.3104 53.3319 81.2333 45.3973C75.5403 37.9717 65.0689 35.9201 56.5142 38.9845C47.041 42.3795 40.0002 50.8147 36.7766 60.1865C34.7777 65.9947 34.1169 72.3347 35.0399 78.4555C35.8319 83.6253 37.7686 88.8225 42.2165 91.8978C42.7713 92.33 43.2656 91.3278 42.7025 90.9322Z" fill="#161616"/>
</g>
</g>
<g id="Group_3">
<g id="Group_4">
<path id="Vector_3" d="M42.036 91.5118C40.3996 92.9861 40.0707 95.6381 41.5999 97.3648C42.7651 98.664 44.7768 99.2707 46.3703 99.86C48.2761 100.596 50.2594 101.158 52.2675 101.611C55.8538 102.38 60.0006 103.046 63.6358 102.405C66.276 101.925 68.6448 99.9245 67.9513 97.0423C67.7992 96.3553 66.7265 96.6896 66.8786 97.3766C68.3575 103.584 55.2893 101.14 52.478 100.506C49.8857 99.9224 47.3428 99.1192 44.9306 98.0767C43.7751 97.5861 42.4736 97.0625 41.9456 95.8301C41.4258 94.5612 41.8929 93.1689 42.8536 92.3103C43.3951 91.7795 42.5693 91.0176 42.036 91.5118Z" fill="#161616"/>
</g>
</g>
<g id="Group_5">
<g id="Group_6">
<path id="Vector_4" d="M41.8704 97.6949C41.4588 99.5219 41.0755 101.394 40.883 103.27C40.8033 104.135 40.8212 104.907 41.3996 105.575C42.2208 106.528 43.872 106.861 45.0157 107.234C46.9543 107.825 48.9624 108.277 50.9504 108.648C52.8289 108.994 54.7239 109.268 56.6271 109.504C57.7471 109.641 58.9802 109.958 60.0093 109.306C62.2829 107.899 63.1014 104.435 63.1453 102.026C63.1556 101.299 62.031 101.353 62.0206 102.08C61.9963 103.38 61.7895 104.639 61.2458 105.86C60.4774 107.569 59.7029 108.623 57.6125 108.536C55.177 108.448 52.5483 107.856 50.1668 107.358C47.8219 106.868 45.1685 106.386 42.9918 105.319C40.9894 104.331 42.6071 99.7038 43.0022 97.9498C43.1221 97.2473 42.0268 97.0006 41.8704 97.6949Z" fill="#161616"/>
</g>
</g>
<g id="Group_7">
<g id="Group_8">
<path id="Vector_5" d="M51.1008 58.4216C54.8647 62.1491 57.2817 66.917 58.0572 72.1599C58.1646 72.8752 59.2893 72.8214 59.1819 72.1061C58.3627 66.5462 55.849 61.5261 51.8989 57.6031C51.3688 57.0613 50.6071 57.888 51.1008 58.4216Z" fill="#161616"/>
</g>
</g>
<g id="Group_9">
<g id="Group_10">
<path id="Vector_6" d="M58.9338 72.3572C62.1086 68.3113 66.121 65.1452 70.8121 63.0535C71.4503 62.7749 71.1249 61.6649 70.4785 61.9801C65.6166 64.1485 61.4253 67.4278 58.108 71.5952C57.676 72.1506 58.5018 72.9126 58.9338 72.3572Z" fill="#161616"/>
</g>
</g>
<g id="Group_11">
<g id="Group_12">
<path id="Vector_7" d="M58.3449 70.8809C57.1969 78.5318 55.7569 86.1169 53.9517 93.6197C53.7953 94.314 54.8906 94.5607 55.047 93.8664C56.8522 86.3636 58.3004 78.742 59.4402 71.1277C59.5318 70.3804 58.4365 70.1337 58.3449 70.8809Z" fill="#161616"/>
</g>
</g>
<g id="Group_13">
<g id="Group_14">
<path id="Vector_8" d="M11.4435 79.6678C16.6698 79.1173 21.8596 78.5586 27.0859 78.008C27.7924 77.9368 27.7391 76.8113 27.0325 76.8825C21.8062 77.4331 16.6164 77.9918 11.3901 78.5423C10.647 78.6053 10.7004 79.7308 11.4435 79.6678Z" fill="#161616"/>
</g>
</g>
<g id="Group_15">
<g id="Group_16">
<path id="Vector_9" d="M18.6393 73.61C20.4258 73.5133 22.2205 73.3801 24.007 73.2833C24.7054 73.2487 24.6885 72.1314 23.9537 72.1579C22.1672 72.2546 20.3724 72.3878 18.586 72.4845C17.8794 72.5558 17.8962 73.673 18.6393 73.61Z" fill="#161616"/>
</g>
</g>
<g id="Group_17">
<g id="Group_18">
<path id="Vector_10" d="M9.22134 58.7013C15.6637 60.0757 22.0118 61.6976 28.3106 63.5388C28.9961 63.7316 29.2431 62.6354 28.5576 62.4426C22.2588 60.6014 15.8659 59.0077 9.46828 57.605C8.77457 57.4488 8.52764 58.545 9.22134 58.7013Z" fill="#161616"/>
</g>
</g>
<g id="Group_19">
<g id="Group_20">
<path id="Vector_11" d="M23.9247 56.7912C25.3676 57.5386 26.8964 58.075 28.4581 58.4651C29.1518 58.6214 29.3988 57.5252 28.7051 57.3689C27.2163 56.9952 25.7971 56.4835 24.4555 55.7973C23.8029 55.4584 23.2721 56.4523 23.9247 56.7912Z" fill="#161616"/>
</g>
</g>
<g id="Group_21">
<g id="Group_22">
<path id="Vector_12" d="M29.2134 22.2375C33.8344 28.4618 37.8372 35.046 41.2136 42.0266C41.5282 42.6734 42.4678 42.0787 42.1531 41.4319C38.7767 34.4513 34.7822 27.8306 30.153 21.6428C29.7489 21.0527 28.7728 21.6391 29.2134 22.2375Z" fill="#161616"/>
</g>
</g>
<g id="Group_23">
<g id="Group_24">
<path id="Vector_13" d="M42.9033 36.2256C43.6586 37.4708 44.3774 38.7078 45.1245 39.9895C45.4839 40.608 46.4235 40.0134 46.0641 39.3949C45.3088 38.1497 44.59 36.9127 43.8429 35.6309C43.4835 35.0124 42.5439 35.6071 42.9033 36.2256Z" fill="#161616"/>
</g>
</g>
<g id="Group_25">
<g id="Group_26">
<path id="Vector_14" d="M20.2085 33.2637C21.7588 34.7264 23.3621 36.1242 25.0183 37.4572C25.5649 37.9259 26.3266 37.0991 25.78 36.6305C24.132 35.261 22.5287 33.8631 20.9701 32.437C20.4318 31.9318 19.6701 32.7585 20.2085 33.2637Z" fill="#161616"/>
</g>
</g>
<g id="Group_27">
<g id="Group_28">
<path id="Vector_15" d="M85.6127 39.2421C92.2345 35.0512 98.8563 30.8603 105.478 26.6694C106.104 26.273 105.474 25.3247 104.884 25.7294C98.2625 29.9203 91.6407 34.1112 85.0189 38.3021C84.3925 38.6985 84.9863 39.6386 85.6127 39.2421Z" fill="#161616"/>
</g>
</g>
<g id="Group_29">
<g id="Group_30">
<path id="Vector_16" d="M90.4838 42.9882C92.1017 42.2776 93.7113 41.6035 95.3292 40.8929C95.9674 40.6143 95.6703 39.5491 94.9955 39.8195C93.3777 40.5301 91.768 41.2042 90.1501 41.9148C89.4754 42.1852 89.8091 43.2586 90.4838 42.9882Z" fill="#161616"/>
</g>
</g>
<g id="Group_31">
<g id="Group_32">
<path id="Vector_17" d="M70.3579 28.2811C72.6467 23.2293 74.6882 18.0834 76.4093 12.827C76.6387 12.1492 75.5434 11.9025 75.314 12.5803C73.6176 17.7271 71.629 22.8081 69.3649 27.7502C69.0625 28.4116 70.0554 28.9424 70.3579 28.2811Z" fill="#161616"/>
</g>
</g>
<g id="Group_33">
<g id="Group_34">
<path id="Vector_18" d="M93.4913 68.8161C103.628 70.1396 113.728 71.4548 123.865 72.7783C124.575 72.8615 124.822 71.7653 124.112 71.6821C113.975 70.3586 103.875 69.0433 93.7382 67.7199C93.0363 67.6001 92.7528 68.6881 93.4913 68.8161Z" fill="#161616"/>
</g>
</g>
<g id="Group_35">
<g id="Group_36">
<path id="Vector_19" d="M44.113 93.3609C49.9787 96.1029 56.2668 97.4809 62.7133 97.474C63.4399 97.4841 63.3866 96.3586 62.6599 96.3485C56.4042 96.36 50.2987 95.0231 44.6438 92.367C43.983 92.0646 43.4522 93.0585 44.113 93.3609Z" fill="#161616"/>
</g>
</g>
<g id="Group_37">
<g id="Group_38">
<path id="Vector_20" d="M42.9347 102.848C47.5046 104.53 52.1815 105.737 57.002 106.477C57.7039 106.597 57.9508 105.501 57.2489 105.381C52.4285 104.641 47.7515 103.434 43.1816 101.752C42.5044 101.522 42.2574 102.618 42.9347 102.848Z" fill="#161616"/>
</g>
</g>
<g id="Group_39">
<g id="Group_40">
<path id="Vector_21" d="M79.7756 97.5175C86.0102 104.412 92.4319 111.158 99.0044 117.745C99.5063 118.242 100.268 117.415 99.7661 116.918C93.1936 110.331 86.7718 103.586 80.5372 96.6908C80.0436 96.1573 79.2819 96.984 79.7756 97.5175Z" fill="#161616"/>
</g>
</g>
</g>
</g>
</svg>
