<svg width="41" height="35" viewBox="0 0 41 35" fill="none" xmlns="http://www.w3.org/2000/svg">
<g id="Group">
<g id="Group_2">
<path id="Vector" d="M16.7326 31.0129C9.0312 31.8967 2.84481 25.079 4.10734 17.3776C5.36987 10.0549 12.3138 4.37354 19.6364 3.86853C25.5703 3.48977 32.2617 5.88855 35.0393 11.5699C38.0694 17.7563 35.2919 26.2153 28.853 28.6141C26.5804 29.4978 27.5904 33.1592 29.863 32.2754C37.5644 29.2454 41.6045 20.9126 39.5845 12.8325C37.1857 3.48974 26.9592 -1.05537 17.8689 0.207163C9.03123 1.46969 0.950998 8.79236 0.0672275 17.8826C-0.816543 27.2253 7.13744 35.6842 16.6064 34.6742C19.1315 34.548 19.1314 30.7604 16.7326 31.0129Z" fill="#EC615B"/>
</g>
</g>
</svg>
